<svg viewBox="0 0 16 16" fill="none" xmlns="http://www.w3.org/2000/svg">
<g clip-path="url(#a)">
    <path d="M13 7.75q-.385 0-.75.07V4H14l.5.5v3.54a4 4 0 0 0-1.5-.29M11.25 4v4.152A4 4 0 0 0 9.07 12.5H4.5V4zM2 4h1.5v8.5H2l-.5-.5V4.5zm3.635-1h4.75V2l-.5-.5h-3.75l-.5.5zm5.245 6.63A3 3 0 1 1 13 14.75h-.707l.56.561-.707.707-1.767-1.768 1.768-1.768.707.707-.561.561H13a2 2 0 1 0-2-2v.833h-1v-.833c0-.795.317-1.558.88-2.12"></path>
  </g>
  <defs>
    <clipPath id="a">
      <path d="M0 0h16v16H0z"></path>
    </clipPath>
  </defs>
</svg>
