<!-- Auto-generated by scripts/generate-cloudflare-icons.js. Do not edit directly. -->
<svg xmlns="http://www.w3.org/2000/svg" aria-hidden="true" style="position:absolute;width:0;height:0;overflow:hidden">
  <symbol id="ai-audit-outline" viewBox="0 0 16 16">
    <path d="M4.693 9.41a.843.843 0 0 0 .853-.833.843.843 0 0 0-.853-.833.843.843 0 0 0-.853.833c0 .46.382.832.853.832m4.329.001a.843.843 0 0 0 .853-.833.843.843 0 0 0-.853-.833.843.843 0 0 0-.853.833c0 .46.382.832.853.832m-.522.958H5.25v1H8.5zm5.023-5.614L15 5.498l-.41.672-1.434-.816.04 1.561h-.832l.04-1.561-1.434.816-.41-.672 1.477-.745-1.477-.745.41-.672 1.434.817-.04-1.562h.831l-.04 1.562 1.434-.817.41.671-.112.059z"></path>
    <path fill-rule="evenodd" d="m13.195 6.915-.04-1.561 1.434.816.411-.672-1.477-.745 1.364-.687.112-.059-.41-.67-1.433.816.04-1.562h-.832l.04 1.562-1.434-.817-.41.672 1.477.745-1.477.745.41.672 1.434-.816-.04 1.561zM9.75 5.117h-2.5l.006-1.25c.196-.11.35-.28.436-.484a.98.98 0 0 0 .043-.641 1 1 0 0 0-.367-.535 1.045 1.045 0 0 0-1.251 0 1 1 0 0 0-.367.535.98.98 0 0 0 .043.641c.087.204.24.374.436.484l.021 1.25H1.5l-.5.5v7.75l.5.5h10.75l.5-.5V7.742c-.014 0 0 .005-.014.005a3.3 3.3 0 0 1-.986-.13v5.25H2v-6.75h8.034a3 3 0 0 1-.284-1" clip-rule="evenodd"></path>
  </symbol>
  <symbol id="auto-rag-outline" viewBox="0 0 16 16">
    <path d="M12.432 2.012V4.38h-1V2.51H2.358v10.977h1.807v1H1.858l-.5-.5V2.012l.5-.5h10.074zm-4.99 12.476h-1v-1.683h1zM6.43 10.383l-.705.706v.999l.705.706-.794.794-.707-.707.793-.793h-1.68v-1h1.68l-.793-.792.707-.707zm2.52-.087-.792.792h1.683v1H8.158l.793.793-.707.707-.795-.794.707-.708.002.002v-1l-.002.002-.707-.707.795-.794zm1.768-5.023a2.267 2.267 0 0 1 1.968 3.388l1.656 1.503-.672.74L12.011 9.4a2.266 2.266 0 1 1-1.293-4.127m-3.277 5.099h-1V8.688h1zm3.277-4.1a1.266 1.266 0 1 0 0 2.534 1.266 1.266 0 0 0 0-2.533M5.844 8.44H3.422v-1h2.422zm1.877-1.927h-4.3v-1h4.3zm1.963-1.927H3.422v-1h6.262z"></path>
  </symbol>
  <symbol id="cloud-hybrid-outline" viewBox="0 0 16 16">
    <path d="M12.374 4.481a.523.523 0 1 0 0-1.046.523.523 0 0 0 0 1.046"></path>
    <path d="M14 1.964H2l-.5.5v3.213l.5.5h12l.5-.5V2.464zm-.5 3.213h-11V2.964h11zm-1.126 4.198a.523.523 0 1 0 0-1.047.523.523 0 0 0 0 1.047"></path>
    <path d="m2 6.857-.5.5v3.213l.5.5h.462a2.5 2.5 0 0 0-.034.386 2.57 2.57 0 0 0 2.566 2.566h6.398a2.183 2.183 0 0 0 2.18-2.18q0-.398-.136-.772H14l.5-.5V7.357l-.5-.5zm.842 3.213H2.5V7.857h3.207a3.4 3.4 0 0 0-.704 1.03 2.45 2.45 0 0 0-1.638.58 2.6 2.6 0 0 0-.524.603m8.55 2.952H4.989a1.57 1.57 0 0 1-1.561-1.565 1.65 1.65 0 0 1 .58-1.224c.265-.225.602-.348.95-.347q.147 0 .292.025l.434.075.13-.422a2.422 2.422 0 0 1 4.736.646l.016.57.563-.09a1.24 1.24 0 0 1 1.039.237 1.2 1.2 0 0 1 .404.915 1.18 1.18 0 0 1-1.18 1.18M13.5 10.07h-.817a2.15 2.15 0 0 0-1.185-.401 3.4 3.4 0 0 0-.941-1.812H13.5z"></path>
  </symbol>
  <symbol id="cloud-hybrid-solid" viewBox="0 0 16 16">
    <path fill-rule="evenodd" d="M2 2h12l.5.5v3.213l-.5.5H2l-.5-.5V2.5zm10.374 2.546a.523.523 0 1 0 0-1.046.523.523 0 0 0 0 1.046M2 6.862h12l.5.5v3.213l-.5.5h-.889l-.054-.053a2.34 2.34 0 0 0-1.354-.612 3.672 3.672 0 0 0-6.862-.788 2.82 2.82 0 0 0-2.314 1.453H2l-.5-.5V7.362zm10.897 2.023a.523.523 0 1 1-1.046 0 .523.523 0 0 1 1.046 0" clip-rule="evenodd"></path>
    <path d="M10.303 9.303c.462.515.727 1.178.747 1.87 1.29-.208 2.022.718 2.022 1.646a1.68 1.68 0 0 1-1.68 1.68H4.988a2.065 2.065 0 1 1 .348-4.102 2.922 2.922 0 0 1 4.967-1.094"></path>
  </symbol>
  <symbol id="cloud-internet-outline" viewBox="0 0 16 16">
    <g clip-path="url(#cloud-internet-outline__a)">
    <path d="M13.015 12.825h-9.46A3.56 3.56 0 0 1 0 9.27a3.65 3.65 0 0 1 1.3-2.757 3.4 3.4 0 0 1 2.423-.798 4.822 4.822 0 0 1 9.244 1.147 2.9 2.9 0 0 1 2 .681 3.01 3.01 0 0 1-1.95 5.282zM3.498 6.708c-.57-.002-1.121.2-1.555.57A2.64 2.64 0 0 0 1 9.27a2.56 2.56 0 0 0 2.547 2.555h9.468A1.99 1.99 0 0 0 15 9.839a2.03 2.03 0 0 0-.682-1.535 2.07 2.07 0 0 0-1.729-.404l-.563.09-.016-.57a3.822 3.822 0 0 0-7.47-1.015l-.13.422-.434-.077a3 3 0 0 0-.477-.042"></path>
    </g>
    <defs>
    <clipPath id="cloud-internet-outline__a">
    <path d="M0 0h16v16H0z"></path>
    </clipPath>
    </defs>
  </symbol>
  <symbol id="cloud-internet-solid" viewBox="0 0 16 16">
    <g clip-path="url(#cloud-internet-solid__a)">
    <path d="M13.015 12.825h-9.46A3.56 3.56 0 0 1 0 9.27a3.65 3.65 0 0 1 1.3-2.757 3.4 3.4 0 0 1 2.423-.798 4.822 4.822 0 0 1 9.244 1.147 2.9 2.9 0 0 1 2 .681 3.01 3.01 0 0 1-1.95 5.282z"></path>
    </g>
    <defs>
    <clipPath id="cloud-internet-solid__a">
    <path d="M0 0h16v16H0z"></path>
    </clipPath>
    </defs>
  </symbol>
  <symbol id="cloud-upload-outline" viewBox="0 0 16 16">
    <g clip-path="url(#cloud-upload-outline__a)">
    <path d="M14.967 7.211a2.9 2.9 0 0 0-2-.68 4.822 4.822 0 0 0-9.244-1.147A3.4 3.4 0 0 0 1.3 6.18 3.65 3.65 0 0 0 0 8.94a3.563 3.563 0 0 0 3.555 3.554H6.5v-1H3.547A2.56 2.56 0 0 1 1 8.939a2.64 2.64 0 0 1 .943-1.992 2.41 2.41 0 0 1 2.032-.528l.435.075.13-.422a3.821 3.821 0 0 1 7.47 1.016l.017.57.563-.091a2.07 2.07 0 0 1 1.729.405A2.03 2.03 0 0 1 15 9.508a1.987 1.987 0 0 1-1.985 1.985h-.032c-.061.001-.428.006-2.483.006v1c1.93 0 2.392-.004 2.515-.007a3.011 3.011 0 0 0 1.951-5.281"></path>
    <path d="m10.95 9.456-2.46-2.5-2.46 2.5.712.701L7.99 8.89v3.62h1V8.89l1.248 1.268z"></path>
    </g>
    <defs>
    <clipPath id="cloud-upload-outline__a">
    <path d="M0 0h16v16H0z"></path>
    </clipPath>
    </defs>
  </symbol>
  <symbol id="cloud-upload-solid" viewBox="0 0 16 16">
    <g clip-path="url(#cloud-upload-solid__a)">
    <path d="M12.967 6.53a2.9 2.9 0 0 1 2 .681 3.01 3.01 0 0 1-1.952 5.281c-.082.002-2.113.004-4.025.006V8.89l1.248 1.268.713-.7L8.49 6.954 6.03 9.456l.713.701L7.99 8.89v3.61H6.5v-.006H3.555A3.56 3.56 0 0 1 0 8.939 3.65 3.65 0 0 1 1.3 6.18a3.4 3.4 0 0 1 2.423-.797 4.822 4.822 0 0 1 9.244 1.147"></path>
    </g>
    <defs>
    <clipPath id="cloud-upload-solid__a">
    <path d="M0 0h16v16H0z"></path>
    </clipPath>
    </defs>
  </symbol>
  <symbol id="cloudflare-access-outline" viewBox="0 0 16 16">
    <path d="M9.2 2.698a5.3 5.3 0 0 0-5.04 3.657l-.035.11H5.1l.022-.052a4.375 4.375 0 1 1 .308 3.835l-.05-.088H4.358l.06.123q.138.297.317.575A5.303 5.303 0 1 0 9.2 2.698"></path>
    <path d="M9.448 7.272 7.59 5.415l-.617.617 1.08 1.083H0l.52.872h8.63zm-.013 3.941-.618-.618 1.08-1.082H1.425l-.518-.875h10.088l.298.717z"></path>
  </symbol>
  <symbol id="cloudflare-access-solid" viewBox="0 0 16 16">
    <path fill-rule="evenodd" d="M9.203 13.3a5.3 5.3 0 1 0-5.227-6.185H0l.52.873h3.382a5 5 0 0 0 .038.65H.907l.518.875H4.12A5.3 5.3 0 0 0 9.203 13.3M4.121 9.514h5.776l-1.08 1.082.618.618 1.857-1.858-.297-.717H3.94q.055.45.181.875m-.219-1.525H9.15l.297-.715L7.59 5.415l-.617.618 1.08 1.082H3.976a5.3 5.3 0 0 0-.074.873" clip-rule="evenodd"></path>
  </symbol>
  <symbol id="cloudflare-account-analytics-outline" viewBox="0 0 16 16">
    <path fill-rule="evenodd" d="m3.01 2.01.5-.5h4.98l.353.146h.002l.1.102 3.908 3.888L13 6v2h-1V6.52H8.49l-.5-.5V2.51H4.01v11H7v1H3.51l-.5-.5zm5.98 1.212V5.52h2.282z" clip-rule="evenodd"></path>
    <path d="M13 14.5V9h-1v5.5zm-2 0v-4.125h-1V14.5zm-2 0v-2.062H8V14.5z"></path>
  </symbol>
  <symbol id="cloudflare-api-outline" viewBox="0 0 16 16">
    <path d="M13.5 2h-11l-.5.5v11l.5.5h11l.5-.5v-11zM13 13H3V3h10z"></path>
    <path d="M4.656 9.125h1.387l.284.875h.87L5.873 6.158H4.826L3.5 10h.87zm.679-2.088h.03l.472 1.454h-.975zM8.42 8.754h.682c.261.008.52-.048.755-.163.201-.101.367-.26.478-.456.113-.207.17-.44.165-.675a1.4 1.4 0 0 0-.162-.676 1.15 1.15 0 0 0-.47-.459 1.55 1.55 0 0 0-.745-.166H7.607V10h.813zm0-1.932h.547a.85.85 0 0 1 .39.08.53.53 0 0 1 .23.223.78.78 0 0 1 0 .67.53.53 0 0 1-.229.227.8.8 0 0 1-.387.082h-.55zM12 6.158h-.812V10H12z"></path>
  </symbol>
  <symbol id="cloudflare-api-solid" viewBox="0 0 16 16">
    <path d="M5.365 7.037h-.03l-.473 1.454h.975zm3.055-.215h.548a.85.85 0 0 1 .39.08.53.53 0 0 1 .23.223.78.78 0 0 1 0 .67.53.53 0 0 1-.229.227.8.8 0 0 1-.387.082h-.55z"></path>
    <path fill-rule="evenodd" d="M2.5 2h11l.5.5v11l-.5.5h-11l-.5-.5v-11zm3.543 7.125H4.655L4.37 10H3.5l1.326-3.842h1.047L7.196 10h-.87zm2.377-.37h.683c.261.007.52-.049.755-.164.2-.101.367-.26.478-.456.113-.206.17-.44.165-.675a1.4 1.4 0 0 0-.163-.676 1.14 1.14 0 0 0-.47-.459 1.55 1.55 0 0 0-.744-.166H7.608V10h.812zm2.768-2.597H12V10h-.812z" clip-rule="evenodd"></path>
  </symbol>
  <symbol id="cloudflare-area1-outline" viewBox="0 0 16 16">
    <path fill-rule="evenodd" d="M9.623 1.167h-.747l-.285.322a6.83 6.83 0 0 1-3.823 1.91l-.34.05L4 3.942V5.25H1.5l-.5.5v6l.5.5h4.22c1.336 1.684 2.987 2.537 3.128 2.607l.177.09h.449l.178-.09c.119-.06 1.316-.677 2.49-1.882C13.318 11.768 14.5 9.94 14.5 7.478V3.944l-.427-.495-.34-.05a6.83 6.83 0 0 1-3.824-1.91zM7.048 12.25a9.4 9.4 0 0 0 2.202 1.69 9.4 9.4 0 0 0 2.176-1.663c1.063-1.091 2.074-2.682 2.074-4.799V4.375a7.83 7.83 0 0 1-4.25-2.132A7.83 7.83 0 0 1 5 4.374v.876h5.022l.5.5v6l-.5.5zM5.761 9.003 2.779 6.25h5.964zm1.771-.274 1.99-1.837v3.703zm-.737.68 1.963 1.84H2.764l1.963-1.84.695.642H6.1zM2 6.892v3.703L3.99 8.73z" clip-rule="evenodd"></path>
  </symbol>
  <symbol id="cloudflare-argo-smart-routing-outline" viewBox="0 0 16 16">
    <path fill-rule="evenodd" d="M1.27 3.25c0-.97.804-1.75 1.787-1.75.984 0 1.787.78 1.787 1.75S4.041 5 3.057 5 1.27 4.22 1.27 3.25m1.787-.75a.76.76 0 0 0-.771.75c0 .41.341.75.771.75a.76.76 0 0 0 .772-.75.76.76 0 0 0-.772-.75" clip-rule="evenodd"></path>
    <path d="m9.578 7.478.095-1.1L5.601 4.08l-.51.866zM3.556 10.25v-4.5H2.54v4.5zm5.042-1.224.506.863 1.155-.652-.474-.88zm-1.256 1.858-.507-.864 1.102-.621.506.863zm-.661.373-1.101.623-.508-.866 1.102-.621zm5.844-3.555c.287 0 .52-.23.52-.512a.517.517 0 0 0-.52-.513c-.287 0-.52.23-.52.513s.232.512.52.512"></path>
    <path fill-rule="evenodd" d="M12.525 5c-.58 0-1.137.225-1.55.627a2.15 2.15 0 0 0-.655 1.518v.006c0 .405.134.84.301 1.234a9 9 0 0 0 .612 1.16 15 15 0 0 0 .877 1.266h.796l.08-.101c.048-.063.118-.154.201-.267.166-.225.388-.54.61-.895.222-.354.45-.757.625-1.16.17-.394.308-.83.308-1.237v-.006a2.15 2.15 0 0 0-.655-1.518A2.22 2.22 0 0 0 12.525 5m.408 4.023a13 13 0 0 1-.42.629c-.126-.18-.268-.394-.41-.625-.203-.33-.4-.687-.544-1.027-.148-.348-.223-.638-.224-.846.005-.307.132-.6.354-.816a1.2 1.2 0 0 1 1.672 0c.222.216.349.509.353.816 0 .206-.077.495-.227.842a8 8 0 0 1-.554 1.027M3.057 14.5c-.983 0-1.787-.78-1.787-1.75S2.074 11 3.057 11c.984 0 1.787.78 1.787 1.75s-.803 1.75-1.787 1.75m-.771-1.75c0 .41.341.75.771.75a.76.76 0 0 0 .772-.75.76.76 0 0 0-.772-.75.76.76 0 0 0-.771.75" clip-rule="evenodd"></path>
  </symbol>
  <symbol id="cloudflare-browser-outline" viewBox="0 0 16 16">
    <path d="M3.625 5.375a.525.525 0 1 0 0-1.05.525.525 0 0 0 0 1.05m1.675 0a.525.525 0 1 0 0-1.05.525.525 0 0 0 0 1.05m1.675 0a.525.525 0 1 0 0-1.05.525.525 0 0 0 0 1.05"></path>
    <path d="M14 2.975H2l-.5.5v9.975l.5.5h12l.5-.5V3.475zm-.5 1V5.7h-11V3.975zm-11 8.975V6.7h11v6.25z"></path>
    <path d="m9.9 9.15.1-.05-.375-.65-1.275.8.025-1.525h-.75L7.65 9.25l-1.275-.8L6 9.1l1.325.725L6 10.55l.375.65 1.275-.8-.025 1.5h.75l-.025-1.5 1.275.8.375-.65-1.325-.725z"></path>
  </symbol>
  <symbol id="cloudflare-browser-solid" viewBox="0 0 16 16">
    <path d="M3.625 5.375a.525.525 0 1 0 0-1.05.525.525 0 0 0 0 1.05m1.675 0a.525.525 0 1 0 0-1.05.525.525 0 0 0 0 1.05m2.2-.525a.525.525 0 1 1-1.05 0 .525.525 0 0 1 1.05 0"></path>
    <path fill-rule="evenodd" d="M14 2.975H2l-.5.5v9.975l.5.5h12l.5-.5V3.475zm-.5 1V5.7h-11V3.975zM10 9.1l-.1.05-1.225.675L10 10.55l-.375.65-1.275-.8.025 1.5h-.75l.025-1.5-1.275.8L6 10.55l1.325-.725L6 9.1l.375-.65 1.275.8-.025-1.525h.75L8.35 9.25l1.275-.8z" clip-rule="evenodd"></path>
  </symbol>
  <symbol id="cloudflare-bundled-outline" viewBox="0 0 16 16">
    <path d="M6.069 1.92h1.239l4.466 6.103-4.355 5.896H6.176l4.357-5.9z"></path>
    <path d="m3.029 7.991 3.213 4.303-.62.84-3.62-4.847.003-.603 3.604-4.711.616.841zm6.67-6.071H8.448l4.53 6.026-4.532 5.973h1.256l4.301-5.67.002-.602z"></path>
    <path d="M7.25 6v1.5h1.5v1h-1.5V10h-1V8.5h-1.5v-1h1.5V6z"></path>
  </symbol>
  <symbol id="cloudflare-byoip-outline" viewBox="0 0 16 16">
    <path d="m.5 2.24-.5.5v10.5l.5.5h10l.5-.5v-2.902h-1v2.401H1v-9.5h9v2.402h1V2.739l-.5-.5zm13.525 5.25-1.122-1.1.7-.714 2.361 2.313-2.36 2.314-.7-.714 1.121-1.1H12v-1z"></path>
    <path d="M8 8.016a.57.57 0 1 0 1.14 0 .57.57 0 0 0-1.14 0m2.483.569a.57.57 0 1 1 0-1.14.57.57 0 0 1 0 1.14M3.25 6.171h-.807V9.99h.807z"></path>
    <path fill-rule="evenodd" d="M4.25 9.99h.807V8.75h.679c.878 0 1.389-.523 1.389-1.286 0-.759-.502-1.294-1.369-1.294H4.25zm.807-1.886V6.831h.545c.466 0 .691.254.691.634 0 .378-.225.64-.688.64z" clip-rule="evenodd"></path>
  </symbol>
  <symbol id="cloudflare-carbon-impact-outline" viewBox="0 0 16 16">
    <path d="m10.142 5.468-.005-.053q-.004-.053-.01-.102a.1.1 0 0 0-.005-.028l-.002-.027c-.025-.263-.06-.52-.095-.768q-.006.001-.008.005-.464.178-.948.4.027.2.05.415l.003.003q.01.071.015.142.014.12.025.243c.002.04.01.08.01.122 0 .043.007.085.01.125l.005-.002c.332-.16.655-.3.96-.423h.002zm-1.458.317a4 4 0 0 0-.22-.12 10 10 0 0 0-.47-.247q0-.007-.002-.003-.53.274-1.06.583h-.01l-.058.035-.06.035q-.539.311-1.04.637h-.002q-.514.333-.983.665-.436.311-.825.625a14 14 0 0 0-1.122.983c-1.163 1.14-1.565 2.047-1.193 2.693h.003c.37.642 1.355.745 2.925.31q.39-.109.815-.258a22 22 0 0 1-.133-1.015c-1.545.563-2.555.66-2.742.465a.62.62 0 0 1 .12-.402c.275-.473.99-1.25 2.15-2.153.11-.083.217-.168.335-.25q.056-.045.117-.085l.198-.143.11-.08.092-.067.103-.073.002.003a22 22 0 0 1 1.63-1.025c.215-.125.425-.24.63-.353q.557-.298 1.073-.547-.192-.109-.383-.213m-1.807 4.898a15 15 0 0 1-.063-.633 19 19 0 0 1-.967.425q.051.534.13 1.028s0-.002.005-.002q.46-.18.945-.405c-.015-.133-.035-.271-.05-.413m7.483-6.358h-.003c-.37-.645-1.357-.75-2.927-.315q-.39.107-.813.257v.005q.076.488.132 1.013c1.535-.558 2.543-.653 2.743-.46.075.305-.678 1.31-2.275 2.55a7 7 0 0 1-.333.25q-.242.184-.514.372h-.003l-.103.07q-.466.322-1.007.658-.3.183-.623.37-.323.186-.632.352-.559.302-1.073.548.187.11.375.21.082.05.165.09a19 19 0 0 0 .53.28l.003.003c.352-.18.707-.378 1.065-.58l.005-.003.002-.003.12-.07V9.92l.068-.038c.102-.06.202-.117.302-.18q.082-.045.16-.097a1 1 0 0 0 .08-.05q.095-.056.185-.113.11-.067.215-.137l.028-.02h.003a8 8 0 0 0 .86-.577q.054-.04.11-.078l.007-.008.002.003.003-.005.002-.003q.215-.155.42-.307.027-.022.053-.04.183-.133.35-.27.588-.462 1.123-.985A6.2 6.2 0 0 0 14.2 5.75c.146-.237.243-.502.285-.778a1.06 1.06 0 0 0-.125-.647"></path>
    <path d="M10.265 7.928v-.003q0-.217-.006-.43v-.003q0-.092-.005-.185 0-.049-.002-.095-.003-.169-.013-.335l-.002-.092-.005-.075v-.005l-.002-.075-.005-.07-.005-.135a26 26 0 0 0-.04-.558l-.023-.247-.008-.083-.002-.015.002-.002-.007-.053-.005-.052q-.004-.053-.01-.103l-.005-.027q0-.015-.002-.028c-.025-.262-.06-.52-.095-.767q-.109-.738-.293-1.46C9.324 1.452 8.742.652 7.999.652c-.742 0-1.327.803-1.735 2.38q-.1.394-.185.835.464.18.948.393a7.7 7.7 0 0 1 .687-2.3c.105-.18.203-.283.285-.305.303.085.795 1.24 1.07 3.24q.027.2.05.415l.003.002q.01.071.015.143.014.12.025.242c.002.04.01.08.01.123s.007.085.01.125q.004.06.012.125v.002q.046.57.063 1.203.009.352.01.722 0 .371-.01.728c-.013.42-.03.817-.063 1.195v.002l.068-.04c.102-.06.202-.117.302-.18q.082-.045.16-.097a1 1 0 0 0 .08-.05q.095-.056.185-.113c.06-.037.123-.075.18-.112l.035-.025.028-.02h.003q.03-.593.03-1.213v-.005l.002-.072v-.063zm-.496 2.382c-.19-.08-.382-.17-.582-.262l-.003.002q-.047.559-.112 1.045a20 20 0 0 0 .95.403l.002-.002q.076-.492.126-1.028-.186-.07-.38-.158m.148 1.818q-.462-.18-.943-.393c-.287 1.62-.71 2.538-.97 2.606-.302-.073-.802-1.228-1.077-3.245-.015-.133-.035-.27-.05-.413a15 15 0 0 1-.063-.633l-.012-.127a25 25 0 0 1-.073-1.928c-.002-.25.005-.49.01-.727q.018-.626.065-1.193v-.007q-.539.311-1.04.637h-.002l.002.005q-.031.592-.032 1.21l.002.003h-.001l-.001.002v.14c-.003.413.01.82.03 1.218v.005q.027.61.085 1.188.051.532.13 1.027.1.737.287 1.457c.405 1.58.993 2.38 1.733 2.38H8c.445 0 .827-.284 1.155-.85.258-.482.452-.995.577-1.527q.104-.397.188-.835zm-3.47-7.44-.24-.098q-.117-.049-.233-.095l-.002.003q-.071.491-.123 1.025l.38.162h.003q.28.121.58.265v-.007q.048-.557.115-1.043c-.163-.075-.32-.142-.48-.212"></path>
    <path d="M13.145 8.968c-.188-.188-.39-.373-.61-.565h-.003a23 23 0 0 1-.807.62l-.003.002-.005.005c1.245 1.043 1.822 1.86 1.75 2.118-.213.225-1.45.082-3.318-.68q-.186-.07-.38-.158-.284-.122-.582-.262l-.113-.055-.002.002A28 28 0 0 1 6.739 8.72q-.536-.333-1.005-.652l-.002-.003c-.003.413.01.82.03 1.218v.005l.005-.003q.498.326 1.035.638l.127.072q.187.11.375.21.082.05.165.09a19 19 0 0 0 .53.28l.003.003.067.035q.229.12.458.228a25 25 0 0 0 .542.255h.003a20 20 0 0 0 1.308.537l.372.13c.112.037.223.075.327.105q.169.055.333.1.146.04.285.072c.093.023.188.046.275.063q.147.031.285.055.279.046.52.063.444.036.878-.073.147-.041.282-.112c.164-.09.3-.222.393-.383.372-.643-.028-1.545-1.185-2.685m-8.36-1.593h-.003v-.003l-.003-.002q-.436.31-.825.625L3.962 8q.384.307.815.617c.11-.082.217-.167.335-.25q.056-.044.117-.085.097-.071.198-.142.048-.036.1-.07c.035-.023.065-.048.1-.073l.002-.002v-.003a19 19 0 0 1-.845-.617m5.474.12v-.003q0-.092-.005-.185 0-.049-.002-.095-.003-.169-.013-.335l-.002-.092-.005-.075c-.333-.218-.68-.428-1.035-.638h-.003V6.07l-.127-.073a29 29 0 0 0-.603-.332 10 10 0 0 0-.47-.248q0-.007-.002-.002a14 14 0 0 0-.52-.26q-.274-.135-.543-.255h-.002c-.163-.075-.32-.143-.48-.213l-.24-.097q-.117-.05-.233-.095-.363-.144-.712-.258-.35-.12-.678-.212a8 8 0 0 0-.282-.07q-.143-.035-.278-.065a5.4 5.4 0 0 0-.82-.115q-.151-.01-.287-.008-.13.001-.26.018l-.003-.003q-.166.021-.327.068l-.11.037a1 1 0 0 0-.173.083 1 1 0 0 0-.212.162 1 1 0 0 0-.165.21c-.373.643.027 1.545 1.185 2.685.192.185.395.375.617.563q.385-.31.808-.62l.005-.003c-1.238-1.04-1.818-1.857-1.75-2.125.225-.217 1.46-.075 3.317.68l.38.163h.003q.28.121.58.265l.11.047.006.003q.513.248 1.067.545.314.17.635.355a27 27 0 0 1 1.635 1.027v-.002q0-.216-.005-.43m1.778.5a22 22 0 0 0-.82-.62 7 7 0 0 1-.333.25q-.242.184-.514.372h-.003l.002.003q.455.319.843.622l.002.003.003-.005.002-.003q.215-.155.42-.307.027-.022.053-.04.183-.133.35-.27z"></path>
  </symbol>
  <symbol id="cloudflare-casb-outline" viewBox="0 0 16 16">
    <path d="M4.5 2A2.5 2.5 0 0 0 2 4.5v2.289l-.648-.644-.705.71 1.864 1.852 1.844-1.855-.71-.704L3 6.797V4.5A1.5 1.5 0 0 1 4.5 3h7A1.5 1.5 0 0 1 13 4.5v1.25h1V4.5A2.5 2.5 0 0 0 11.5 2zM13 8.703V11.5a1.5 1.5 0 0 1-1.5 1.5h-7A1.5 1.5 0 0 1 3 11.5V9.766H2V11.5A2.5 2.5 0 0 0 4.5 14h7a2.5 2.5 0 0 0 2.5-2.5V8.711l.648.644.704-.71-1.863-1.852-1.844 1.855.71.704z"></path>
    <path d="m4.845 8.25.855-.825 1.645 1.718 3.465-3.496.845.835-4.31 4.37z"></path>
  </symbol>
  <symbol id="cloudflare-d-outline" viewBox="0 0 16 16">
    <path fill-rule="evenodd" d="M12.152 2.048a1.8 1.8 0 0 0-1.043.067 1.76 1.76 0 0 0-.82.64 1.73 1.73 0 0 0-.003 1.976l-.045.054L8.76 6.53a1.722 1.722 0 0 0-2.38 1.155 1.7 1.7 0 0 0 .247 1.355l-1.535 1.807a2 2 0 0 0-.165-.038 1.78 1.78 0 0 0-1.2.134 1.744 1.744 0 0 0-.902 2.062c.119.394.374.733.721.959a1.775 1.775 0 0 0 2.253-.266 1.74 1.74 0 0 0 .12-2.244L7.35 9.737l.06-.07q.115.046.238.075a1.72 1.72 0 0 0 2.078-1.257 1.7 1.7 0 0 0-.21-1.297l1.55-1.824q.126.048.258.077c.455.109.934.034 1.333-.207s.684-.63.794-1.08.034-.924-.21-1.319a1.76 1.76 0 0 0-1.09-.787M4.335 13.232a.76.76 0 0 1-.568-.611.74.74 0 0 1 .352-.754.76.76 0 0 1 1.102.38.74.74 0 0 1-.315.896.76.76 0 0 1-.57.089m7.226-8.76a.76.76 0 0 1-.569-.611.74.74 0 0 1 .352-.754.76.76 0 0 1 1.103.38.74.74 0 0 1-.315.896.76.76 0 0 1-.571.089" clip-rule="evenodd"></path>
  </symbol>
  <symbol id="cloudflare-dlp-outline" viewBox="0 0 16 16">
    <path d="m1.5 1.75.5-.5h9.983l.5.5v3.014a3 3 0 0 0-1-.255V2.25H2.5v10.495h4v1H2l-.5-.5z"></path>
    <path d="M10.468 4.495H3.49v-1h6.978zM3.49 6.512h3.948v-1H3.49zm3.948 1.983H3.49v-1h3.948zm3.995 4.849v-1.169a.81.81 0 0 0 .363-.875.81.81 0 0 0-.796-.626.82.82 0 0 0-.796.626.81.81 0 0 0 .363.875v1.17z"></path>
    <path fill-rule="evenodd" d="m14.194 9.216.431.429v4.801l-.431.429H7.806l-.431-.429V9.645l.431-.429h.78v-1.44c0-.637.255-1.248.708-1.698a2.42 2.42 0 0 1 3.412 0c.453.45.708 1.061.708 1.698v1.44zM9.976 6.759c-.271.27-.424.636-.424 1.017v1.44h2.896v-1.44c0-.381-.152-.747-.424-1.017a1.45 1.45 0 0 0-2.048 0m-1.635 7.154v-3.735h5.318v3.735z" clip-rule="evenodd"></path>
  </symbol>
  <symbol id="cloudflare-durable-objects-outline" viewBox="0 0 16 16">
    <path d="M5.873 4.855a.75.75 0 1 0-1.23.859.75.75 0 0 0 1.23-.859m5.492 6.497a.75.75 0 1 1-.859-1.23.75.75 0 0 1 .859 1.23"></path>
    <path fill-rule="evenodd" d="M8.054 1.5h-.051a6.5 6.5 0 1 0 .05 0M5.678 3.016A5.5 5.5 0 0 0 2.526 7.5h1.951q.017-.447.063-.878l1 .06q-.045.398-.062.818H7.5V2.63c-.446.202-.868.645-1.225 1.352l-.068.142-.968-.286q.069-.157.143-.306.136-.27.296-.516M7.5 8.5H5.478c.056 1.396.348 2.625.797 3.518.357.707.78 1.15 1.225 1.352zm-1.822 4.484a6 6 0 0 1-.296-.517C4.85 11.41 4.534 10.02 4.477 8.5H2.526a5.5 5.5 0 0 0 3.152 4.484m4.888-.118A5.5 5.5 0 0 0 13.48 8.5h-1.787q-.018.457-.065.897l-1-.06q.045-.406.064-.837H8.5v4.935c.508-.16.993-.621 1.394-1.417q.033-.064.063-.13l.969.287a6 6 0 0 1-.36.691m.126-5.366H8.5V2.565c.508.16.993.621 1.394 1.417.45.893.742 2.122.798 3.518m1 0c-.056-1.519-.372-2.91-.905-3.968a6 6 0 0 0-.22-.398A5.5 5.5 0 0 1 13.48 7.5z" clip-rule="evenodd"></path>
  </symbol>
  <symbol id="cloudflare-email-forwarding-outline" viewBox="0 0 16 16">
    <g clip-path="url(#cloudflare-email-forwarding-outline__a)">
    <path fill-rule="evenodd" d="m3.728 4 .5-.5h11.286l.5.5v7.983l-.5.5H4.228l-.5-.5zm4.037 3.963-3.037 2.862v-5.68zm-2.277 3.52L8.5 8.644l1.03.956h.68l1.031-.955 3.013 2.838zm9.526-.658v-5.68l-3.038 2.818zM9.87 8.552 5.502 4.5h8.737z" clip-rule="evenodd"></path>
    <path d="M.75 6.5H3v-1H.75zM3 8.5H0v-1h3zm-2.25 2H3v-1H.75z"></path>
    </g>
    <defs>
    <clipPath id="cloudflare-email-forwarding-outline__a">
    <path d="M0 0h16v16H0z"></path>
    </clipPath>
    </defs>
  </symbol>
  <symbol id="cloudflare-email-security-outline" viewBox="0 0 16 16">
    <path fill-rule="evenodd" d="m14.373 3.53-.34-.047a6.98 6.98 0 0 1-3.843-1.898l-.297-.335h-.75l-.29.335A6.98 6.98 0 0 1 5.02 3.483l-.34.047-.43.5V5h-2.5l-.5.5v6.25l.5.5h4.16a10.5 10.5 0 0 0 3.196 2.684l.011.006.178.09h.45l.178-.09c.197-.098 4.88-2.5 4.88-7.38V4.025zm-7.158 8.72a9.3 9.3 0 0 0 2.305 1.773c.5-.255 4.283-2.375 4.283-6.463v-3.1A8.03 8.03 0 0 1 9.52 2.335 8.04 8.04 0 0 1 5.238 4.46V5H11l.5.5v6.25l-.5.5zM2.25 10.602V6.6l2.222 1.937zm.772.648L5.23 9.197l.816.712h.658l.875-.763L9.76 11.25zm7.478-.677L8.335 8.486 10.5 6.6zM3.084 6h6.582L6.375 8.869z" clip-rule="evenodd"></path>
  </symbol>
  <symbol id="cloudflare-email-security-solid" viewBox="0 0 16 16">
    <path fill-rule="evenodd" d="m13.748 3.53-.34-.047a6.98 6.98 0 0 1-3.843-1.898l-.297-.335h-.75l-.29.335a6.98 6.98 0 0 1-3.833 1.898l-.34.047-.43.5v1.095h6.75l.375.375v6.25l-.375.375H5.189a10.45 10.45 0 0 0 3.292 2.809l.012.006.177.09h.45l.178-.09c.197-.098 4.88-2.5 4.88-7.38V4.025zM1.5 10.89V6.323l2.533 2.21zm.579.485 2.523-2.346.902.786h.492l.962-.838 2.488 2.398zM10 10.867 7.526 8.483 10 6.324zM2.126 5.876h7.248L5.75 9.035z" clip-rule="evenodd"></path>
  </symbol>
  <symbol id="cloudflare-firewall-rules-outline" viewBox="0 0 16 16">
    <path fill-rule="evenodd" d="m1.5 2 .5-.5h5.5L8 2v3l-.5.5H5.149v2.032L6.08 6.6l.566.566-1.897 1.897L2.85 7.166l.566-.566.932.932V5.5H2L1.5 5zM7 4.5v-2H2.5v2z" clip-rule="evenodd"></path>
    <path fill-rule="evenodd" d="M2 14h12l.5-.5v-9L14 4h-3.25l-.5.5V7H8.5l-.5.5V10H2l-.5.5v3zm.5-3h2.25v2H2.5zm3.25 2v-2h4.5v2zm7.75-5H9v2h4.5zm0-1V5h-2.25v2zm-2.25 4h2.25v2h-2.25z" clip-rule="evenodd"></path>
  </symbol>
  <symbol id="cloudflare-gateway-outline" viewBox="0 0 16 16">
    <path d="M15.45 7.125h-2.577V3.507l-.41-.407H3.925l-.41.41v3.08h.922V4.022h7.513v7.556H4.438v-1.553h-.923v2.065l.41.41h8.538l.41-.41V8.047H16z"></path>
    <path d="M8.453 7.237H0l.518.87H8.97zM9.21 8.51H.755l.518.867h8.452z"></path>
  </symbol>
  <symbol id="cloudflare-gateway-solid" viewBox="0 0 16 16">
    <g clip-path="url(#cloudflare-gateway-solid__a)">
    <path fill-rule="evenodd" d="M15.45 7.125h-2.577V3.508l-.41-.408H3.925l-.41.41v3.728H0l.518.87h2.997v.402H.755l.517.868h2.243v2.712l.41.41h8.538l.41-.41V8.048H16zM3.515 9.378h6.21L9.21 8.51H3.515zm0-1.27H8.97l-.518-.87H3.516z" clip-rule="evenodd"></path>
    </g>
    <defs>
    <clipPath id="cloudflare-gateway-solid__a">
    <path d="M0 0h16v16H0z"></path>
    </clipPath>
    </defs>
  </symbol>
  <symbol id="cloudflare-kv-outline" viewBox="0 0 16 16">
    <path d="M5.5 11.238H3.75v-1H5.5zM3.75 9.237H5.5v-1H3.75zm1.75-2H3.75v-1H5.5zm1 4.001h5.75v-1H6.5zm5.75-2.001H6.5v-1h5.75zm-5.75-2h5.75v-1H6.5z"></path>
    <path fill-rule="evenodd" d="m1.5 3 .5-.5h4.75l.419.227.852 1.306H14l.5.5V13l-.5.5H2l-.5-.5zm1 .5v9h11V5.033H7.75l-.419-.227L6.48 3.5z" clip-rule="evenodd"></path>
  </symbol>
  <symbol id="cloudflare-magic-firewall-outline" viewBox="0 0 16 16">
    <path d="m13.591 3.476 1.417.767-.394.691-1.375-.84.038 1.608h-.797l.038-1.608-1.374.84-.394-.691 1.416-.767-1.416-.767.394-.692 1.374.84-.038-1.607h.797l-.037 1.608 1.374-.841.393.691-.108.06z"></path>
    <path fill-rule="evenodd" d="m2 2.5-.5.5v10.5l.5.5h12l.5-.5V10l-.5-.5h-2.25v-3l-.5-.5H8.5V3L8 2.5zm6.5 8h5V13h-5zm-1 0V13h-5v-2.5zm-1.75-1V7h5v2.5zm-1 0V7H2.5v2.5zM7.5 6h-5V3.5h5z" clip-rule="evenodd"></path>
  </symbol>
  <symbol id="cloudflare-magic-transit-outline" viewBox="0 0 16 16">
    <path d="m10.695 9.061-1.83-.99 1.69-.915.14-.077-.509-.893-1.775 1.086.048-2.076H7.43l.05 2.076-1.776-1.086-.508.894 1.83.99-1.83.992.508.893L7.48 8.869l-.05 2.077h1.03l-.048-2.077 1.775 1.086z"></path>
    <path fill-rule="evenodd" d="M8.317 1.11h-.745l-.287.321a6.9 6.9 0 0 1-3.852 1.91l-.343.05-.428.496v3.535c0 2.463 1.19 4.291 2.375 5.498 1.181 1.204 2.386 1.822 2.506 1.882l.178.089h.447l.179-.09c.12-.059 1.325-.677 2.507-1.881 1.184-1.207 2.375-3.035 2.375-5.498V3.888l-.428-.495-.343-.05A6.9 6.9 0 0 1 8.605 1.43zM3.662 4.318a7.9 7.9 0 0 0 4.283-2.134A7.9 7.9 0 0 0 12.23 4.32v3.103c0 2.115-1.018 3.706-2.09 4.797a9.4 9.4 0 0 1-2.194 1.665 9.4 9.4 0 0 1-2.194-1.665c-1.072-1.091-2.09-2.682-2.09-4.797z" clip-rule="evenodd"></path>
  </symbol>
  <symbol id="cloudflare-magic-wan-outline" viewBox="0 0 16 16">
    <path d="M14.5 7.5h-3.977l3.667-1.525-.383-.925-3.682 1.52 2.818-2.82-.708-.707L9.43 5.85l1.525-3.662-.925-.386-1.53 3.68V1.5h-1v3.965L6 1.798l-.925.382 1.52 3.682-2.83-2.817-.707.705 2.805 2.808L2.2 5.035l-.385.922L5.5 7.5h-4v1h3.978L1.81 10l.382.925 3.683-1.52-2.817 2.818.707.707 2.805-2.805-1.525 3.662.925.385L7.5 10.5v3.977h1V10.5l1.5 3.668.925-.38-1.508-3.675 2.818 2.817.708-.707-2.806-2.806 3.663 1.526.385-.925L10.5 8.5h4zm-4 0v1l-.38.92-.702.703-.918.362h-1l-.918-.38-.702-.703-.38-.92V7.5l.38-.92.702-.702L7.5 5.5h1l.918.38.702.702z"></path>
  </symbol>
  <symbol id="cloudflare-pages-outline" viewBox="0 0 16 16">
    <path d="m7.125 2.5-.65 1H3v9h2.9l-.175 1H2.5L2 13V3l.5-.5zm3.15 0H13.5l.5.5v10l-.5.5H8.875l.65-1H13v-9h-2.9z"></path>
    <path d="M7.15 9.5h-2.9l-.425-.775 5.2-8 .9.375L8.85 6.5h2.9l.425.775-5.2 8-.9-.375zM3.725 4.575a.35.35 0 1 0 0-.7.35.35 0 0 0 0 .7m.925 0a.35.35 0 1 0 0-.7.35.35 0 0 0 0 .7m.925 0a.35.35 0 1 0 0-.7.35.35 0 0 0 0 .7"></path>
  </symbol>
  <symbol id="cloudflare-pages-solid" viewBox="0 0 16 16">
    <path d="m9.253.502.922.36L8.878 6.5h2.372l.437.742-.003.006-4.438 7.75-.921-.36L7.622 9H5.25l-.007-.012-.43-.73z"></path>
    <path fill-rule="evenodd" d="M7.245 2.5H2.5L2 3v10l.5.5h3.32l.876-3.75H4.82l-.876-1.487zM3.35 4.575a.35.35 0 1 0 0-.7.35.35 0 0 0 0 .7m1.275-.35a.35.35 0 1 1-.7 0 .35.35 0 0 1 .7 0m.575.35a.35.35 0 1 0 0-.7.35.35 0 0 0 0 .7" clip-rule="evenodd"></path>
    <path d="M8.968 13.5H13.5l.5-.5V3l-.5-.5h-2.938l-.758 3.25h1.874l.876 1.487z"></path>
  </symbol>
  <symbol id="cloudflare-pipelines-outline" viewBox="0 0 16 16">
    <path d="M3.303 4.466c-.232.608-.407 1.393-.494 2.284H1.805c.09-1.004.286-1.912.564-2.64.193-.509.436-.954.731-1.282.295-.327.683-.578 1.15-.578h6.25c.467 0 .855.25 1.15.578s.538.773.732 1.282c.277.728.473 1.636.563 2.64h-1.004c-.087-.89-.262-1.676-.494-2.284-.168-.442-.356-.765-.54-.969s-.322-.247-.407-.247H5.714c.159.254.297.545.417.86.39 1.02.619 2.395.619 3.89s-.23 2.87-.619 3.89c-.12.315-.258.606-.417.86H10.5c.085 0 .223-.043.407-.247s.372-.527.54-.969c.232-.608.407-1.393.494-2.284h1.004c-.09 1.004-.286 1.912-.563 2.64-.194.509-.437.954-.732 1.282-.295.327-.683.578-1.15.578H4.25c-.467 0-.855-.25-1.15-.578s-.538-.773-.731-1.282c-.278-.728-.474-1.636-.564-2.64h1.004c.087.89.262 1.676.494 2.284.168.442.357.765.54.969s.322.247.407.247.223-.043.407-.247.372-.527.54-.969c.335-.88.553-2.13.553-3.534 0-1.405-.218-2.654-.553-3.534-.168-.442-.357-.765-.54-.969s-.322-.247-.407-.247-.223.043-.407.247-.372.527-.54.969M0 8.063a.563.563 0 1 0 1.125 0 .563.563 0 0 0-1.125 0"></path>
    <path d="M1.75 8.063a.563.563 0 1 0 1.125 0 .563.563 0 0 0-1.125 0m1.75 0a.563.563 0 1 0 1.125 0 .563.563 0 0 0-1.125 0M15 8.5H8v-1h7z"></path>
    <path d="m14.845 8-1.217-1.217.566-.566L15.976 8l-1.783 1.783-.565-.566z"></path>
  </symbol>
  <symbol id="cloudflare-pubsub-outline" viewBox="0 0 16 16">
    <path fill-rule="evenodd" d="M13.55 5.126a6.25 6.25 0 0 1-.034 5.812q.18.333.313.644c.193.45.317.873.34 1.245.025.37-.048.763-.334 1.05-.382.381-.944.385-1.44.277-.445-.096-.958-.305-1.517-.606a6.25 6.25 0 0 1-5.756 0c-.559.3-1.073.51-1.517.607-.39.084-.788.095-1.125-.06-.375-.173-.58-.505-.637-.892-.053-.36.02-.767.16-1.18.11-.334.273-.698.48-1.085A6.26 6.26 0 0 1 1.87 6.78a6.3 6.3 0 0 1 .58-1.655c-.304-.564-.516-1.082-.613-1.53-.084-.389-.096-.787.06-1.125.172-.374.504-.58.892-.637.36-.052.767.021 1.18.16q.507.17 1.097.488a6.25 6.25 0 0 1 5.868 0 8 8 0 0 1 .656-.32c.45-.193.873-.316 1.246-.34.37-.024.763.048 1.049.334.382.382.385.945.278 1.44-.097.449-.309.966-.613 1.53m-1.185-.043a5.25 5.25 0 0 1-1.49 7.31 18 18 0 0 1-2.11-1.526A29 29 0 0 0 10 9.684v.816h1V7.75H8.25v1h1.264A29 29 0 0 1 8 10.21a28 28 0 0 1-1.14-1.08c-1.072-1.072-2.03-2.2-2.755-3.239a15 15 0 0 1-.5-.764A5.25 5.25 0 0 1 9.9 3.106a20 20 0 0 0-1.437 1.056q-.482.386-.963.812V4h-1v2.75h2.75v-1H8.132q.478-.425.956-.807a18 18 0 0 1 1.836-1.303c.568.38 1.058.87 1.441 1.443m-.463-1.965c.377.301.72.646 1.018 1.028q.198-.442.266-.76c.087-.406 0-.515-.008-.523-.004-.004-.06-.057-.278-.043-.215.013-.519.091-.915.261zm-7.804 0a5 5 0 0 0-.446-.176c-.347-.116-.582-.138-.72-.118a.24.24 0 0 0-.101.032.1.1 0 0 0-.026.033c-.025.054-.055.2.01.496q.07.326.265.761a6.3 6.3 0 0 1 1.018-1.028M3.08 6.165a5.25 5.25 0 0 0 2.045 6.228q.368-.223.774-.506c.433-.302.882-.645 1.336-1.02a29 29 0 0 1-1.083-1.029C5.047 8.732 4.048 7.56 3.285 6.464q-.105-.15-.204-.299m3.082 6.753a5.25 5.25 0 0 0 3.674 0A21 21 0 0 1 8 11.532a22 22 0 0 1-1.837 1.386m-2.02 0a6.3 6.3 0 0 1-1.022-1.012q-.104.233-.17.433c-.117.348-.139.582-.119.72.01.063.026.092.033.102a.1.1 0 0 0 .033.025c.054.025.2.055.495-.009q.322-.07.75-.26m7.715 0q.435.192.748.26c.405.087.514 0 .522-.009.004-.004.058-.06.044-.277-.014-.215-.092-.52-.262-.915l-.03-.071a6.2 6.2 0 0 1-1.022 1.011" clip-rule="evenodd"></path>
  </symbol>
  <symbol id="cloudflare-radar-outline" viewBox="0 0 16 16">
    <path d="M11.6 5.325a.9.9 0 1 0-1.8 0 .9.9 0 0 0 1.8 0"></path>
    <path d="M8 1.5A6.5 6.5 0 1 0 14.5 8 6.525 6.525 0 0 0 8 1.5m-.5 11.975A5.5 5.5 0 0 1 2.525 8.5h1.25A4.25 4.25 0 0 0 7.5 12.225zm0-2.275a3.175 3.175 0 0 1-2.7-2.7h2.7zm0-3.7H4.8a3.175 3.175 0 0 1 2.7-2.7zm0-3.725A4.25 4.25 0 0 0 3.775 7.5h-1.25A5.5 5.5 0 0 1 7.5 2.525zm1 1.025q.334.039.65.15l.525-.85c-.375-.16-.77-.27-1.175-.325v-1.25A5.5 5.5 0 0 1 13.475 7.5h-1.25a4.2 4.2 0 0 0-.3-1.125l-.875.525q.115.29.15.6H8.5zm0 3.7h2.7a3.175 3.175 0 0 1-2.7 2.7zm0 4.975v-1.25A4.25 4.25 0 0 0 12.225 8.5h1.25A5.5 5.5 0 0 1 8.5 13.475"></path>
  </symbol>
  <symbol id="cloudflare-radar-solid" viewBox="0 0 16 16">
    <path d="M14.481 8.5a6.5 6.5 0 0 1-5.98 5.98v-2.008A4.5 4.5 0 0 0 12.472 8.5z"></path>
    <path d="M11.465 8.5A3.5 3.5 0 0 1 8.5 11.464V8.5zM7.5 11.464V8.5H4.536A3.5 3.5 0 0 0 7.5 11.464"></path>
    <path fill-rule="evenodd" d="M11.465 7.5H8.5V4.535q.42.061.8.214l.537-.858A4.5 4.5 0 0 0 8.5 3.527V1.52a6.5 6.5 0 0 1 5.981 5.98h-2.008a4.5 4.5 0 0 0-.359-1.326l-.865.523q.155.383.216.804m.25-2.32a.89.89 0 1 1-1.78 0 .89.89 0 0 1 1.78 0" clip-rule="evenodd"></path>
    <path d="M7.5 7.5V4.535A3.5 3.5 0 0 0 4.536 7.5z"></path>
    <path d="M7.5 1.519v2.008A4.5 4.5 0 0 0 3.528 7.5H1.519A6.5 6.5 0 0 1 7.5 1.519m0 12.961v-2.008A4.5 4.5 0 0 1 3.528 8.5H1.519A6.5 6.5 0 0 0 7.5 14.48"></path>
  </symbol>
  <symbol id="cloudflare-registrar-outline" viewBox="0 0 16 16">
    <path d="M8.21 1.503q-.063-.004-.125-.003h-.082a6.5 6.5 0 1 0 0 13h.082q.063 0 .126-.004A6.5 6.5 0 0 0 8.21 1.503m4.775 4.165H11.7a7.6 7.6 0 0 0-.975-2.446 5.54 5.54 0 0 1 2.258 2.446M8.5 2.562c.93.275 1.759 1.456 2.175 3.106H8.5zm-1 .06v3.046H5.496C5.886 4.12 6.64 2.983 7.5 2.622m-1.966.464a7.5 7.5 0 0 0-1.066 2.582H3.022a5.54 5.54 0 0 1 2.512-2.582m-2.556 7.15h1.47a7.6 7.6 0 0 0 1.08 2.676 5.53 5.53 0 0 1-2.55-2.675M7.5 13.38c-.88-.367-1.646-1.54-2.028-3.142H7.5zm1 .06v-3.202h2.197C10.291 11.94 9.45 13.16 8.5 13.439m2.231-.665c.479-.78.814-1.64.991-2.537h1.305a5.53 5.53 0 0 1-2.296 2.538M2.643 9.237a5.5 5.5 0 0 1 .023-2.569H13.34c.21.843.217 1.723.023 2.569z"></path>
    <path d="M6.236 8.166h-.01l-.183-.781H5.66l-.177.786h-.01l-.166-.786h-.392l.32 1.227h.418l.192-.715h.013l.192.715h.418l.32-1.227h-.392zm1.94 0h-.01l-.182-.781H7.6l-.177.786h-.01l-.166-.786h-.392l.32 1.227h.418l.192-.715h.013l.192.715h.418l.32-1.227h-.392zm1.941 0h-.01l-.182-.781h-.383l-.178.786h-.01l-.165-.786h-.393l.32 1.227h.419l.191-.715h.014l.192.715h.418l.32-1.227h-.392zm.763.056a.2.2 0 0 0-.146.06.2.2 0 0 0-.06.146.2.2 0 0 0 .06.146.2.2 0 0 0 .147.061q.055 0 .102-.028a.2.2 0 0 0 .075-.075.2.2 0 0 0 .014-.184.2.2 0 0 0-.048-.066.2.2 0 0 0-.143-.06"></path>
  </symbol>
  <symbol id="cloudflare-registrar-solid" viewBox="0 0 16 16">
    <path d="M9.5 14.402a6.51 6.51 0 0 0 4.502-3.826H11.95a8 8 0 0 1-.874 2.177c-.42.699-.954 1.281-1.578 1.65"></path>
    <path fill-rule="evenodd" d="M14.326 9.577a6.5 6.5 0 0 0 0-3.001h-2.089V6.57H3.744v.005h-2.07a6.5 6.5 0 0 0 0 3h2.177l-.001-.008h1.01l.001.009h2.637v-.009h.999v.009h2.636l.001-.009h1.01l-.001.009zM8.174 8.24h-.01l-.183-.78H7.6l-.178.786h-.01l-.166-.786h-.392l.32 1.227h.418l.192-.715h.014l.191.715h.418l.32-1.227h-.392zm-1.941 0h-.01l-.183-.78h-.382l-.178.786h-.01l-.166-.786h-.392l.32 1.227h.418l.192-.715h.014l.191.715h.418l.32-1.227h-.392zm3.87 0h.011l.16-.78h.393l-.32 1.227h-.418l-.192-.715h-.014l-.191.715h-.419l-.32-1.227h.393l.165.786h.01l.178-.786h.383zm.775.057a.2.2 0 0 0-.148.06.2.2 0 0 0-.06.145.2.2 0 0 0 .06.147.2.2 0 0 0 .148.061q.055 0 .102-.028a.2.2 0 0 0 .075-.075.2.2 0 0 0 .013-.184.2.2 0 0 0-.047-.066.2.2 0 0 0-.143-.06" clip-rule="evenodd"></path>
    <path d="M14.002 5.577a6.51 6.51 0 0 0-4.504-3.828c.624.368 1.16.951 1.58 1.65.374.626.672 1.364.873 2.178zm-7.51-3.825a6.51 6.51 0 0 0-4.494 3.825h2.045A8 8 0 0 1 4.917 3.4c.419-.698.953-1.28 1.575-1.648m-4.494 8.824h2.045c.202.813.5 1.552.874 2.177.418.697.952 1.279 1.574 1.647a6.51 6.51 0 0 1-4.493-3.824m3.776 1.663a6.8 6.8 0 0 1-.697-1.663h2.42v3.18c-.621-.178-1.225-.688-1.723-1.517m2.723 1.516v-3.18h2.42a6.8 6.8 0 0 1-.697 1.664c-.497.83-1.102 1.338-1.723 1.516m2.421-8.178a6.8 6.8 0 0 0-.698-1.663c-.497-.83-1.102-1.34-1.723-1.517v3.18zm-3.42 0v-3.18c-.622.178-1.226.687-1.724 1.517a6.8 6.8 0 0 0-.697 1.663z"></path>
  </symbol>
  <symbol id="cloudflare-ruleset-engine-outline" viewBox="0 0 16 16">
    <path fill-rule="evenodd" d="M1.5 2.5 2 2h7.5v1h-7v10h8v1H2l-.5-.5z" clip-rule="evenodd"></path>
    <path fill-rule="evenodd" d="M8 5.25H3.5v-1H8zm.5 2h-5v-1h5zm-1.5 2H3.5v-1H7z" clip-rule="evenodd"></path>
    <path fill-rule="evenodd" d="M9.873 2.756a2.738 2.738 0 0 0 .513 4.896l.33.47V13.5h1.213l.002-5.378.329-.47a2.739 2.739 0 0 0 .513-4.896l-.002 2.133-.5.5h-1.897l-.5-.5zm-1.527.063a3.74 3.74 0 0 1 1.88-1.314l.647.478.001 2.405h.898V1.983l.648-.478a3.739 3.739 0 0 1 .51 6.949V14l-.5.5h-2.213l-.5-.5-.002-5.546a3.738 3.738 0 0 1-1.37-5.635" clip-rule="evenodd"></path>
  </symbol>
  <symbol id="cloudflare-security-application-outline" viewBox="0 0 16 16">
    <path fill-rule="evenodd" d="M7.628 1.11h.745l.288.32a6.9 6.9 0 0 0 3.853 1.912l.343.05.427.495v3.535c0 2.462-1.19 4.29-2.375 5.498-1.181 1.204-2.387 1.822-2.506 1.882l-.18.089h-.446l-.178-.09a8 8 0 0 1-.788-.467 4.4 4.4 0 0 0 1.18-.456l.01.006a9.4 9.4 0 0 0 2.195-1.665c1.07-1.091 2.088-2.682 2.088-4.797V4.319a7.9 7.9 0 0 1-4.283-2.135 7.9 7.9 0 0 1-4.283 2.134v1.713a4.5 4.5 0 0 0-1 .722V3.886l.427-.494.343-.05A6.9 6.9 0 0 0 7.341 1.43zm-5.357 9.593.881-.174c.071.357.211.688.406.98l-.746.499c.264.395.604.734.999.999l.5-.746c.291.195.622.335.979.406l-.175.88a3.6 3.6 0 0 0 1.413 0l-.174-.88c.356-.071.688-.211.98-.406l.499.746a3.6 3.6 0 0 0 .998-1l-.746-.499c.195-.291.336-.622.406-.979l.881.174a3.6 3.6 0 0 0 0-1.412l-.88.174a2.7 2.7 0 0 0-.407-.98l.746-.499a3.6 3.6 0 0 0-.998-.999l-.5.747a2.7 2.7 0 0 0-.98-.406l.175-.881a3.6 3.6 0 0 0-1.413 0l.175.88a2.7 2.7 0 0 0-.98.407l-.5-.747a3.6 3.6 0 0 0-.998 1l.746.499a2.7 2.7 0 0 0-.406.979l-.88-.174a3.6 3.6 0 0 0 0 1.412m3.55 1.002a1.708 1.708 0 1 1 0-3.416 1.708 1.708 0 0 1 0 3.416" clip-rule="evenodd"></path>
  </symbol>
  <symbol id="cloudflare-security-center-outline" viewBox="0 0 16 16">
    <path d="M8.203 12.205a4.162 4.162 0 1 0 0-8.325 4.162 4.162 0 0 0 0 8.325m0-5.207a1.045 1.045 0 1 1-1.045 1.045A1.047 1.047 0 0 1 8.203 7zM7.063 9.75q.246.164.53.25v1.152a3.15 3.15 0 0 1-1.328-.607zm1.53.307c.203-.039.4-.109.582-.207l.81.81a3.1 3.1 0 0 1-1.392.527zm1.317-.884q.17-.271.25-.58h1.143a3.14 3.14 0 0 1-.606 1.377zm.283-1.58A2 2 0 0 0 9.958 7l.807-.805c.296.41.49.887.563 1.388zm-.943-1.3a2 2 0 0 0-.55-.23v-1.14c.492.081.958.279 1.358.577zm-1.55-.23a2 2 0 0 0-.522.212l-.808-.807c.395-.282.85-.469 1.33-.545zm-1.237.91a2 2 0 0 0-.225.5H5.095A3.15 3.15 0 0 1 5.66 6.17zm-.25 1.5q.051.276.182.527l-.815.815a3.15 3.15 0 0 1-.5-1.337z"></path>
    <path d="M14 1.468H2.033L1.513 2v2.275h-.368v2.5h.368v2.5h-.368v2.5h.368v2.147l.52.553H14l.52-.52V2zm-.52 11.967H2.553V2.5H13.48z"></path>
  </symbol>
  <symbol id="cloudflare-security-center-solid" viewBox="0 0 16 16">
    <path d="M8.783 7.174a1.05 1.05 0 0 0-.58-.176V7a1.047 1.047 0 0 0-1.045 1.043 1.045 1.045 0 1 0 1.625-.87M7.593 10a2 2 0 0 1-.53-.25l-.798.795c.389.304.844.512 1.328.607zm1.582-.15a2 2 0 0 1-.582.207v1.13c.5-.06.978-.24 1.392-.527zm.985-1.257q-.08.309-.25.58l.787.797c.31-.403.519-.876.606-1.377zM9.958 7a2 2 0 0 1 .235.593l1.135-.01a3.15 3.15 0 0 0-.563-1.388zM8.7 6.063q.293.073.55.23l.807-.793A3.1 3.1 0 0 0 8.7 4.923zm-1.522.212a2 2 0 0 1 .522-.212v-1.14c-.48.076-.935.263-1.33.545zm-.94 1.198q.076-.266.225-.5L5.66 6.17c-.285.385-.478.83-.565 1.303zM6.395 9a1.9 1.9 0 0 1-.182-.527l-1.133.005c.062.478.233.935.5 1.337z"></path>
    <path fill-rule="evenodd" d="M2.033 1.468H14l.52.532v11.955l-.52.52H2.033l-.52-.553v-2.147h-.368v-2.5h.368v-2.5h-.368v-2.5h.368V2zm8.482 10.036A4.162 4.162 0 1 1 5.89 4.582a4.162 4.162 0 0 1 4.625 6.922" clip-rule="evenodd"></path>
  </symbol>
  <symbol id="cloudflare-security-network-outline" viewBox="0 0 16 16">
    <path fill-rule="evenodd" d="M8.373 1.11h-.745l-.287.321a6.9 6.9 0 0 1-3.853 1.91l-.343.05-.427.495v3.536c0 2.462 1.19 4.29 2.375 5.498a10.3 10.3 0 0 0 2.506 1.882l.178.088h.447l.179-.088c.12-.06 1.324-.678 2.506-1.882 1.185-1.207 2.375-3.036 2.375-5.498V3.887l-.427-.494-.343-.05A6.9 6.9 0 0 1 8.66 1.43zM3.718 4.317A7.9 7.9 0 0 0 8 2.184a7.9 7.9 0 0 0 4.283 2.135v3.103c0 2.115-1.017 3.706-2.089 4.797A9.4 9.4 0 0 1 8 13.884a9.4 9.4 0 0 1-2.195-1.665c-1.07-1.091-2.088-2.682-2.088-4.797zm6.797 4.058a2.6 2.6 0 0 1-1.47 1.884c.226-.499.38-1.153.428-1.884zm.029-.75a2.6 2.6 0 0 0-1.5-2.084c.247.544.409 1.273.439 2.084zm-1.812 0c-.03-.724-.175-1.345-.373-1.778-.195-.428-.356-.518-.395-.536-.038.018-.2.108-.395.536-.197.433-.343 1.054-.373 1.778zm-1.524.75c.046.638.183 1.186.361 1.578.196.429.357.518.395.536.039-.018.2-.107.395-.536.18-.392.316-.94.362-1.578zm-.752 0c.047.73.202 1.385.428 1.884a2.6 2.6 0 0 1-1.47-1.884zm-.01-.75c.03-.811.192-1.54.438-2.084a2.6 2.6 0 0 0-1.499 2.084zm4.862.275a3.344 3.344 0 1 1-6.687 0 3.344 3.344 0 0 1 6.687 0" clip-rule="evenodd"></path>
  </symbol>
  <symbol id="cloudflare-spectrum-outline" viewBox="0 0 16 16">
    <path d="M8.223 14.948h-.445l-.18-.09c-.198-.1-4.88-2.5-4.88-7.38V3.941l.43-.5L3.5 3.4a6.98 6.98 0 0 0 3.833-1.9l.295-.33h.75l.292.33a6.96 6.96 0 0 0 3.842 1.9l.34.047.43.5v3.53c0 4.886-4.682 7.273-4.88 7.38zm-4.5-10.573v3.102c0 4.085 3.795 6.208 4.282 6.463.5-.25 4.282-2.377 4.282-6.463V4.375A8 8 0 0 1 8 2.25a8 8 0 0 1-4.282 2.125z"></path>
    <path d="M8.5 4.755h-1V6.96h1z"></path>
    <path d="M9.94 5.352 8.38 6.91l.708.707 1.559-1.56z"></path>
    <path d="M11.245 7.5H9.04v1h2.205z"></path>
    <path d="m9.09 8.38-.707.706 1.56 1.56.706-.707z"></path>
    <path d="M8.5 9.04h-1v2.205h1z"></path>
    <path d="m6.912 8.382-1.559 1.56.707.706L7.62 9.09z"></path>
    <path d="M6.96 7.5H4.755v1H6.96z"></path>
    <path d="m6.058 5.352-.707.707 1.559 1.56.707-.708z"></path>
  </symbol>
  <symbol id="cloudflare-spectrum-solid" viewBox="0 0 16 16">
    <path d="M6.96 7.567v.863l.61.61h.86l.61-.61v-.86l-.61-.61h-.862z"></path>
    <path fill-rule="evenodd" d="M8.223 14.948h-.445l-.18-.09c-.198-.1-4.88-2.5-4.88-7.38V3.943l.43-.5L3.5 3.4a6.98 6.98 0 0 0 3.833-1.9l.295-.33h.75l.292.33a6.96 6.96 0 0 0 3.843 1.9l.34.048.43.5v3.53c0 4.78-4.485 7.17-4.862 7.37l-.018.01zM8.5 4.755h-1v2.04L6.058 5.351l-.707.707L6.79 7.5H4.756v1h2.04L5.354 9.941l.707.707L7.5 9.208v2.037h1V9.203l1.443 1.443.707-.707L9.21 8.5h2.034v-1H9.206l1.441-1.441-.707-.707-1.44 1.44z" clip-rule="evenodd"></path>
  </symbol>
  <symbol id="cloudflare-stream-delivery-outline" viewBox="0 0 16 16">
    <g clip-path="url(#cloudflare-stream-delivery-outline__a)">
    <path d="M14.968 7.544a2.93 2.93 0 0 0-2-.68 4.825 4.825 0 0 0-9.25-1.147 3.4 3.4 0 0 0-2.418.797A3.65 3.65 0 0 0 0 9.264a3.56 3.56 0 0 0 3.545 3.563h9.47a3 3 0 0 0 1.952-5.283m-1.953 4.283H3.547A2.56 2.56 0 0 1 1 9.272a2.65 2.65 0 0 1 .942-2A2.4 2.4 0 0 1 3.5 6.709q.24 0 .475.043l.435.077.127-.422A3.823 3.823 0 0 1 12 7.422l.025.58.565-.09a2.06 2.06 0 0 1 1.728.405A2.03 2.03 0 0 1 15 9.842a2 2 0 0 1-1.985 1.984"></path>
    <path fill-rule="evenodd" d="m6.43 6.223.755-.43 3.771 2.234.001.86-3.771 2.243-.756-.43zm1 .877v2.72l2.292-1.362z" clip-rule="evenodd"></path>
    </g>
    <defs>
    <clipPath id="cloudflare-stream-delivery-outline__a">
    <path d="M0 0h16v16H0z"></path>
    </clipPath>
    </defs>
  </symbol>
  <symbol id="cloudflare-stream-delivery-solid" viewBox="0 0 16 16">
    <g clip-path="url(#cloudflare-stream-delivery-solid__a)">
    <path d="M7.43 9.821v-2.72l2.292 1.357z"></path>
    <path fill-rule="evenodd" d="M12.968 6.864a2.93 2.93 0 0 1 2 .68 3 3 0 0 1-1.953 5.283h-9.47A3.56 3.56 0 0 1 0 9.264a3.65 3.65 0 0 1 1.3-2.75 3.4 3.4 0 0 1 2.418-.797 4.825 4.825 0 0 1 9.25 1.147M7.185 5.793l-.755.43V10.7l.756.43 3.771-2.243v-.86z" clip-rule="evenodd"></path>
    </g>
    <defs>
    <clipPath id="cloudflare-stream-delivery-solid__a">
    <path d="M0 0h16v16H0z"></path>
    </clipPath>
    </defs>
  </symbol>
  <symbol id="cloudflare-tail-worker-outline" viewBox="0 0 16 16">
    <path d="m6.22 12.305-3.198-4.3 3.181-4.177-.614-.843-3.584 4.713L2 8.3l3.601 4.848z"></path>
    <path d="M7.337 2h-1.23l4.439 6.1L6.21 14h1.238l4.333-5.898z"></path>
    <path d="M9.717 2H8.471l4.51 6.028L8.47 14h1.25L14 8.33v-.602zM7.4 6h1v3.5h-1zM6.2 7h1v2.5h-1zM5 8h1v1.5H5z"></path>
  </symbol>
  <symbol id="cloudflare-teams-outline" viewBox="0 0 16 16">
    <path fill-rule="evenodd" d="M6.125 1.75a2.875 2.875 0 1 0 0 5.75 2.875 2.875 0 0 0 0-5.75M4.25 4.625a1.875 1.875 0 1 1 3.75 0 1.875 1.875 0 0 1-3.75 0M4.976 8a4.7 4.7 0 0 0-3.344 1.398A4.8 4.8 0 0 0 .61 10.945c-.131.32-.218.76-.273 1.164A9 9 0 0 0 .25 13.25l.5.5H15l.5-.5c0-.484-.094-1.073-.265-1.622-.17-.54-.433-1.104-.813-1.488a3.67 3.67 0 0 0-2.609-1.09h-1.61l-.134.002A4.7 4.7 0 0 0 7.109 8zm0 1a3.7 3.7 0 0 0-2.633 1.102c-.346.35-.621.765-.809 1.223-.081.198-.155.535-.207.92a9 9 0 0 0-.055.505h8.29v-1.006H4.268l-.517-.869h5.813v-.942A3.7 3.7 0 0 0 7.11 9zm5.462 2.744h2.282l-.516-.869h-1.767v-.826h1.376c.711 0 1.394.285 1.898.795.218.22.421.609.57 1.083.086.276.147.56.182.823h-4.025zM9.75 6.375a2.125 2.125 0 1 1 4.25 0 2.125 2.125 0 0 1-4.25 0m2.125-1.125a1.125 1.125 0 1 0 0 2.25 1.125 1.125 0 0 0 0-2.25" clip-rule="evenodd"></path>
  </symbol>
  <symbol id="cloudflare-trace-outline" viewBox="0 0 16 16">
    <path fill-rule="evenodd" d="m3.75 2.005.5-.5h7.5l.5.5v2.75l-.5.5H8.5v2.111h2.402a2.25 2.25 0 0 1 2.25 2.25v1.25a1.849 1.849 0 1 1-1 0v-1.25c0-.69-.56-1.25-1.25-1.25H8.5v2.5a1.85 1.85 0 1 1-1 0v-2.5H5.098c-.69 0-1.25.56-1.25 1.25v1.25a1.85 1.85 0 1 1-1 0v-1.25a2.25 2.25 0 0 1 2.25-2.25H7.5V5.255H4.25l-.5-.5zm1 .5v1.75h6.5v-1.75zm-1.402 9.294a.848.848 0 1 0 0 1.696.848.848 0 0 0 0-1.696m4.652 0a.848.848 0 1 0 0 1.696.848.848 0 0 0 0-1.696m4.652 0a.848.848 0 1 0 0 1.696.848.848 0 0 0 0-1.696" clip-rule="evenodd"></path>
  </symbol>
  <symbol id="cloudflare-unbound-outline" viewBox="0 0 16 16">
    <path d="M7.304 1.916H6.065l4.464 6.1-4.357 5.9h1.243l4.355-5.897z"></path>
    <path d="M6.24 12.294 3.025 7.992l3.196-4.178-.615-.841-3.605 4.711L2 8.287l3.62 4.847zM8.444 1.916h1.251l4.306 5.727-.002.603-4.301 5.67H8.442l4.533-5.974z"></path>
    <path d="M6.763 5.264 4.79 7.284l.573.558.899-.92v2.323h1V6.921l.899.921.572-.559zm-.5 4.743v1h1v-1z"></path>
  </symbol>
  <symbol id="cloudflare-waiting-room-outline" viewBox="0 0 16 16">
    <path fill-rule="evenodd" d="m3 2 .5-.5h9l.5.5v3.5h1l.5.5v5.75l-.5.5h-2v2.25h-1v-2.25H5v2.25H4v-2.25H2l-.5-.5V6l.5-.5h1zm9 .5v3h-.5L11 6v2.75H5V6l-.5-.5H4v-3zm-9.5 8.75V6.5H4v2.75l.5.5h7l.5-.5V6.5h1.5v4.75z" clip-rule="evenodd"></path>
  </symbol>
  <symbol id="cloudflare-warp-mobile-outline" viewBox="0 0 16 16">
    <g clip-path="url(#cloudflare-warp-mobile-outline__a)">
    <path d="M12.064 0h-8.06L3.5.483v14.785l.504.482h8.06l.504-.482V.482zm-.503 14.546H4.508V1.204h2.519v.469h2.015v-.47h2.519z"></path>
    <path fill-rule="evenodd" d="M8.125 10.098a1.375 1.375 0 1 0 0-2.75 1.375 1.375 0 0 0 0 2.75m0 1a2.375 2.375 0 1 0 0-4.75 2.375 2.375 0 0 0 0 4.75" clip-rule="evenodd"></path>
    <path fill-rule="evenodd" d="M8.125 9.925a.55.55 0 1 0 0-1.1.55.55 0 0 0 0 1.1m0 .825a1.375 1.375 0 1 0 0-2.75 1.375 1.375 0 0 0 0 2.75" clip-rule="evenodd"></path>
    <path fill-rule="evenodd" d="M8.102 9.977a2.102 2.102 0 1 0 0-4.204 2.102 2.102 0 0 0 0 4.204m0 1a3.102 3.102 0 1 0 0-6.204 3.102 3.102 0 0 0 0 6.204" clip-rule="evenodd"></path>
    </g>
    <defs>
    <clipPath id="cloudflare-warp-mobile-outline__a">
    <path d="M0 0h16v16H0z"></path>
    </clipPath>
    </defs>
  </symbol>
  <symbol id="cloudflare-warp-outline" viewBox="0 0 16 16">
    <path d="M8 1.5A6.5 6.5 0 1 0 14.5 8 6.525 6.525 0 0 0 8 1.5m0 1A5.525 5.525 0 0 1 13.5 8a5.6 5.6 0 0 1-.725 2.725c.1-.375.151-.762.15-1.15a4.925 4.925 0 0 0-9.85 0 4.4 4.4 0 0 0 .15 1.15A5.6 5.6 0 0 1 2.5 8 5.525 5.525 0 0 1 8 2.5M6.25 12.7a2.325 2.325 0 1 1 3.5 0 1.75 1.75 0 0 0-3.5 0M8 7.825a3.325 3.325 0 0 0-3.325 3.35q-.012.265.05.525a3.83 3.83 0 0 1-.65-2.125 3.925 3.925 0 0 1 7.85 0 3.83 3.83 0 0 1-.65 2.125q.062-.259.05-.525A3.326 3.326 0 0 0 8 7.825m-.75 4.925a.75.75 0 1 1 .75.75.724.724 0 0 1-.75-.75"></path>
  </symbol>
  <symbol id="cloudflare-warp-solid" viewBox="0 0 16 16">
    <path d="M1.5 8a6.5 6.5 0 1 1 11.122 4.57 5.375 5.375 0 1 0-8.487.656A6.49 6.49 0 0 1 1.5 8"></path>
    <path d="M3.75 9.625a4.375 4.375 0 1 1 7.86 2.646 3.75 3.75 0 1 0-7.331-.561 4.36 4.36 0 0 1-.529-2.085"></path>
    <path d="M8.044 14a1.25 1.25 0 1 0-.088-2.5 1.25 1.25 0 0 0 .088 2.5"></path>
    <path d="m5.752 12.834-.002-.084a2.25 2.25 0 1 1 4.499.084 2.75 2.75 0 1 0-4.497 0"></path>
  </symbol>
  <symbol id="cloudflare-web-analytics-outline" viewBox="0 0 16 16">
    <path d="M5 8.5V7H4v1.5zm1.75 0h-1v-3h1zm1.75 0V4h-1v4.5z"></path>
    <path fill-rule="evenodd" d="M3.722 2.343A5 5 0 0 1 6.5 1.5a5.005 5.005 0 0 1 5 5 5 5 0 0 1-1.129 3.164l4.108 4.108-.707.707-4.108-4.108a4.999 4.999 0 1 1-5.942-8.028M6.5 2.5a4 4 0 1 0 0 8 4 4 0 0 0 0-8" clip-rule="evenodd"></path>
  </symbol>
  <symbol id="cloudflare-web3-outline" viewBox="0 0 16 16">
    <path d="M12.563 10.634a.712.712 0 1 0 1.232.711.712.712 0 0 0-1.232-.711M8 1.5a.712.712 0 1 0 0 1.423A.712.712 0 0 0 8 1.5M6.894 3.321l-.5-.866-3.81 2.2-.25.432v4.389h1V5.954l.87.501.5-.866-.87-.502zM3.941 9.852l.5.866 3.073-1.774v2.124h1V8.944l3.045 1.758.5-.866-3.045-1.758 1.84-1.062-.5-.866-1.84 1.062V3.654h-1v3.558L5.674 6.15l-.5.866 1.84 1.062zm.478 1.553-.5.866 3.845 2.22h.5l3.817-2.203-.5-.867-3.067 1.771V12.19h-1v1.003zm9.274-6.318V9.47h-1V5.953l-.868.502-.5-.866.868-.502-3.08-1.778.5-.866 3.83 2.211zM3.436 10.672a.712.712 0 1 0-1.233.712.712.712 0 0 0 1.233-.712"></path>
  </symbol>
  <symbol id="cloudflare-webassembly-outline" viewBox="0 0 16 16">
    <path d="M5.495 12.077h-.787L3.616 8.258h.882l.632 2.653h.031l.698-2.653h.755l.695 2.659h.034l.632-2.659h.881l-1.092 3.819h-.787L6.25 9.58h-.03z"></path>
    <path fill-rule="evenodd" d="m9.84 11.206-.283.87h-.865l1.318-3.818h1.04l1.316 3.819h-.864l-.284-.871zm.675-2.075-.47 1.445h.97l-.47-1.445z" clip-rule="evenodd"></path>
    <path fill-rule="evenodd" d="m2.5 2.077-.5.5v11l.5.5h11l.5-.5v-11l-.5-.5h-4l-.5.5a1 1 0 0 1-2 0l-.5-.5zm.5 11v-10h3.063a2 2 0 0 0 3.874 0H13v10z" clip-rule="evenodd"></path>
  </symbol>
  <symbol id="cloudflare-workers-outline" viewBox="0 0 16 16">
    <path d="m6.21 12.293-3.215-4.3 3.198-4.178-.618-.843-3.602 4.713-.005.602 3.62 4.848z"></path>
    <path d="M7.333 1.987H6.095l4.462 6.1-4.357 5.9h1.245L11.8 8.09z"></path>
    <path d="M9.725 1.987H8.473l4.532 6.028-4.532 5.973h1.255l4.302-5.67v-.603z"></path>
  </symbol>
  <symbol id="cloudflare-workers-solid" viewBox="0 0 16 16">
    <path d="M7.333 1.988H6.094l4.464 6.018-4.357 5.982h1.244l4.355-5.98z"></path>
    <path d="m6.203 12.286.006.008-.62.84-.013-.016-.012.016-.62-.84-.053-.094-2.923-3.913.004-.603 3.604-4.711L9.429 8z"></path>
    <path d="M8.473 1.988h1.252l4.305 5.727-.001.603-4.302 5.67H8.472l4.532-5.974z"></path>
  </symbol>
  <symbol id="cloudflare-zaraz-outline" viewBox="0 0 16 16">
    <path d="M1 3.5h5.5v-1H1zm0 2h5.5v-1H1zm9 4H6.5v-1H10zm-3.5-2H10v-1H6.5zm8.5 6H6.5v-1H15zm-8.5-2H15v-1H6.5z"></path>
  </symbol>
  <symbol id="cloudflare-zero-trust-outline" viewBox="0 0 16 16">
    <path d="m7.573 10.138.707.707 2.623-2.623-2.623-2.62-.707.708 1.415 1.412H1.503v1h7.485z"></path>
    <path d="m12.858 3.445-.343-.048A6.98 6.98 0 0 1 8.672 1.5l-.297-.335h-.75l-.29.335A6.96 6.96 0 0 1 3.5 3.397l-.342.048-.43.5V6.75h1V4.375A8.03 8.03 0 0 0 8 2.25a8.04 8.04 0 0 0 4.288 2.125v3.1c0 4.09-3.788 6.208-4.288 6.463-.383-.188-2.855-1.58-3.857-4.188h-1.06c1.102 3.358 4.355 5.023 4.52 5.105l.177.09h.447l.178-.09c.2-.098 4.883-2.5 4.883-7.38V3.94z"></path>
  </symbol>
  <symbol id="cloudflare-zero-trust-solid" viewBox="0 0 16 16">
    <path fill-rule="evenodd" d="m3.492 3.396-.342.05-.43.495v3.535c0 4.887 4.682 7.28 4.882 7.38l.178.09h.447l.178-.09c.2-.1 4.882-2.493 4.882-7.38V3.941l-.43-.495-.342-.05a6.96 6.96 0 0 1-3.84-1.9l-.12-.131-.178-.2H7.63l-.179.2-.119.132a6.96 6.96 0 0 1-3.84 1.9m5.55 4.354L7.647 6.354l.708-.708 2.621 2.622-2.621 2.621-.708-.707L9.08 8.75H1.5v-1z" clip-rule="evenodd"></path>
  </symbol>
  <symbol id="d1-outline" viewBox="0 0 16 16">
    <path fill-rule="evenodd" d="m2.207 2.632 1.687-1.285.317-.097h7.604l.313.102 1.736 1.285.215.423v9.98l-.145.362-1.268 1.343-.384.165H3.967l-.36-.142-1.439-1.342L2 13.04V3.06zm.844 6.673 1.174 1.298h.014v1.05h-.48l-.708-.788v1.941l1.118 1.05h7.88l.972-1.026v-2.028l-.964.851H7.16v-1.05h4.505l1.363-1.211V7.438l-.964.853H7.16v-1.05h4.505l1.363-1.208V4.215l-.964.856H3.77l-.72-.735v1.607l1.175 1.298h.014v1.05h-.48l-.708-.788zm8.59-7.004H4.388l-1.069.816.893.914h7.454l1.05-.935z" clip-rule="evenodd"></path>
    <path d="M5.7 8.703a.788.788 0 1 1 0 1.575.788.788 0 0 1 0-1.575m-.93 3.857.93-.929.928.929-.929.928zm.93-7.05.796.46v.92l-.797.46-.796-.46v-.92z"></path>
  </symbol>
  <symbol id="internet-browser-outline" viewBox="0 0 16 16">
    <path d="M3.623 5.4a.522.522 0 1 0 0-1.045.522.522 0 0 0 0 1.045m1.675 0a.522.522 0 1 0 0-1.045.522.522 0 0 0 0 1.045m1.672 0a.522.522 0 1 0 0-1.045.522.522 0 0 0 0 1.045"></path>
    <path d="M14 3.018H2l-.5.5v9.967l.5.5h12l.5-.5V3.518zm-.5 1V5.75h-11V4.018zm-11 8.967V6.75h11V13z"></path>
  </symbol>
  <symbol id="internet-browser-solid" viewBox="0 0 16 16">
    <path d="M4.145 4.877a.523.523 0 1 1-1.045 0 .523.523 0 0 1 1.045 0m1.675 0a.522.522 0 1 1-1.045 0 .522.522 0 0 1 1.045 0m1.15.523a.522.522 0 1 0 0-1.045.522.522 0 0 0 0 1.045"></path>
    <path fill-rule="evenodd" d="M2 3.017h12l.5.5v9.968l-.5.5H2l-.5-.5V3.517zM13.5 5.75V4.017h-11V5.75z" clip-rule="evenodd"></path>
  </symbol>
  <symbol id="logo-discord-outline" viewBox="0 0 16 16">
    <g clip-path="url(#logo-discord-outline__a)">
    <path d="M6.082 8.44c0-.414.305-.753.691-.753.387 0 .698.339.692.752 0 .414-.305.753-.692.753-.38 0-.691-.34-.691-.753m2.474.001c0-.414.305-.753.691-.753.387 0 .692.339.692.752 0 .414-.305.753-.692.753-.38 0-.691-.34-.691-.753"></path>
    <path fill-rule="evenodd" d="M3.459 2h9.083c.765 0 1.389.624 1.389 1.396v12.16l-1.457-1.287-.82-.76-.868-.806.36 1.254H3.458c-.766 0-1.39-.624-1.39-1.397V3.396A1.396 1.396 0 0 1 3.46 2m6.019 8.303c.203.258.447.55.447.55C11.423 10.804 12 9.822 12 9.822c0-2.184-.976-3.953-.976-3.953-.976-.732-1.905-.711-1.905-.711l-.094.108c1.152.353 1.687.86 1.687.86a5.53 5.53 0 0 0-3.41-.636.6.6 0 0 0-.114.013c-.238.02-.814.109-1.539.427-.25.116-.4.197-.4.197s.563-.536 1.783-.888l-.068-.081s-.929-.02-1.905.711c0 0-.976 1.77-.976 3.952 0 0 .57.983 2.068 1.03 0 0 .25-.305.454-.562-.861-.258-1.186-.8-1.186-.8s.067.047.19.115q.008.01.026.02.015.01.03.017l.031.017c.17.095.34.17.495.23.278.11.61.218.997.292a4.8 4.8 0 0 0 1.755.007 4.5 4.5 0 0 0 .983-.291c.237-.088.502-.217.78-.4 0 0-.34.556-1.227.806" clip-rule="evenodd"></path>
    </g>
    <defs>
    <clipPath id="logo-discord-outline__a">
    <path d="M0 0h16v16H0z"></path>
    </clipPath>
    </defs>
  </symbol>
  <symbol id="logo-discord-solid" viewBox="0 0 16 16">
    <path d="M6.018 8.295c0 .43.315.78.697.78.388 0 .696-.35.696-.78.006-.428-.305-.782-.696-.782-.388 0-.697.351-.697.782m2.575 0c0 .43.315.78.697.78.391 0 .696-.35.696-.78.007-.428-.305-.782-.696-.782-.388 0-.697.351-.697.782"></path>
    <path fill-rule="evenodd" d="M14.5 8a6.5 6.5 0 1 1-13 0 6.5 6.5 0 0 1 13 0M9.108 5.047a6.4 6.4 0 0 1 1.578.49.02.02 0 0 1 .01.008c.875 1.288 1.307 2.74 1.146 4.411a.03.03 0 0 1-.01.018 6.4 6.4 0 0 1-1.939.979.03.03 0 0 1-.027-.01 5 5 0 0 1-.395-.643.025.025 0 0 1 .013-.035 4 4 0 0 0 .604-.288.025.025 0 0 0 .003-.04l-.12-.095a.02.02 0 0 0-.026-.003 4.58 4.58 0 0 1-3.895 0 .02.02 0 0 0-.025.003q-.06.049-.12.094a.025.025 0 0 0 .002.041q.289.168.605.288c.014.006.02.021.013.035q-.171.338-.396.644a.03.03 0 0 1-.027.008 6.4 6.4 0 0 1-1.935-.978.03.03 0 0 1-.01-.018c-.135-1.446.14-2.91 1.145-4.411a.02.02 0 0 1 .01-.009 6.4 6.4 0 0 1 1.578-.49q.016 0 .025.013c.069.12.147.276.2.403a5.9 5.9 0 0 1 1.771 0c.053-.124.129-.282.197-.403a.024.024 0 0 1 .025-.012" clip-rule="evenodd"></path>
  </symbol>
  <symbol id="logo-github-solid" viewBox="0 0 16 16">
    <path fill-rule="evenodd" d="M7.997 1.488c-3.589 0-6.5 2.983-6.5 6.665a6.65 6.65 0 0 0 4.446 6.323c.325.061.444-.145.444-.321 0-.158-.006-.577-.009-1.133-1.808.402-2.19-.894-2.19-.894-.295-.77-.721-.975-.721-.975-.59-.414.045-.405.045-.405a1.37 1.37 0 0 1 .995.687c.58 1.018 1.521.725 1.892.553.029-.336.175-.651.413-.89-1.444-.168-2.962-.74-2.962-3.294a2.6 2.6 0 0 1 .669-1.788 2.45 2.45 0 0 1 .064-1.764s.545-.18 1.787.683a6 6 0 0 1 3.255 0c1.24-.862 1.785-.683 1.785-.683.24.56.263 1.188.065 1.764.44.49.68 1.129.668 1.788 0 2.56-1.52 3.125-2.968 3.288a1.6 1.6 0 0 1 .442 1.235c0 .89-.008 1.61-.008 1.828 0 .178.117.386.447.32a6.65 6.65 0 0 0 4.442-6.322c0-3.682-2.91-6.665-6.5-6.665" clip-rule="evenodd"></path>
    <path d="m3 7.272.002.066L3 7.26zm11.5 0-.001-.054v.136zm0-.089-.002-.06.002.095q-.002-.017 0-.035"></path>
  </symbol>
  <symbol id="machine-learning-contextual-outline" viewBox="0 0 16 16">
    <path fill-rule="evenodd" d="M4.83 13.368a2.5 2.5 0 0 0 1.86 1.237 2.5 2.5 0 0 0 1.81-.48l.002-.001-.002-.003v-2.714h.71l.47.349a1.624 1.624 0 1 0 .721-.71l-.86-.64H8.5v-2.03h3.125a1.63 1.63 0 0 0 .673.773 1.625 1.625 0 1 0-.754-1.774H8.5V5.47h1.04l.764-.566a1.625 1.625 0 1 0-.667-.75l-.427.316H8.5V1.875a2.5 2.5 0 0 0-3.792 1.002 2.375 2.375 0 0 0-2.4 2.897q-.073.048-.144.104a2.375 2.375 0 0 0-.21 3.56 2.875 2.875 0 0 0 2.877 3.93M7.165 2.384a1.5 1.5 0 0 0-1.467.747c.287.145.544.348.753.6l-.768.64A1.375 1.375 0 0 0 3.26 5.404q.197-.03.4-.029l-.015 1a1.4 1.4 0 0 0-.728.197l-.17.131-.005-.006a1.375 1.375 0 0 0-.232 1.857 2.88 2.88 0 0 1 2.631-.882l-.179.984a1.875 1.875 0 1 0-.449 3.716 2.5 2.5 0 0 1 .856-2.141l.653.757A1.5 1.5 0 0 0 7.5 13.54V2.461a1.5 1.5 0 0 0-.336-.077m6.049 4.747a.626.626 0 1 0-.176 1.24.626.626 0 0 0 .176-1.24m-2.244-4.236a.626.626 0 1 1 .312 1.212.626.626 0 0 1-.312-1.212m.244 8.987a.625.625 0 1 0-.176 1.236.625.625 0 0 0 .176-1.236" clip-rule="evenodd"></path>
  </symbol>
  <symbol id="magic-network-monitoring-outline" viewBox="0 0 16 16">
    <path fill-rule="evenodd" d="m9.704 8.944 5.046 4.577-.67.729-5.042-4.576a4.545 4.545 0 0 1-6.236-.224 4.52 4.52 0 0 1-.117-6.223 4.542 4.542 0 0 1 7.853 2.472 4.52 4.52 0 0 1-.834 3.245M4.09 9.22a3.54 3.54 0 0 0 1.962.593A3.55 3.55 0 0 0 9.55 6.77H8.12l-.773 1.84h-.923l-1.25-3.17-.431 1.027-.457.303H2.55a3.52 3.52 0 0 0 1.539 2.45M2.554 5.78q.012-.09.03-.179A3.52 3.52 0 0 1 5.356 2.83a3.54 3.54 0 0 1 3.629 1.49c.296.44.488.94.564 1.461H7.79l-.457.304-.433 1.03-1.255-3.181h-.914l-.775 1.847z" clip-rule="evenodd"></path>
  </symbol>
  <symbol id="mcp-server-outline" viewBox="0 0 16 16">
    <path d="M8.776 8.494q.379 0 .7.107.326.105.576.31.252.202.409.495.159.293.204.671h-.931a.9.9 0 0 0-.104-.32.8.8 0 0 0-.202-.243.9.9 0 0 0-.285-.153 1.1 1.1 0 0 0-.346-.053q-.338 0-.589.168-.25.165-.388.484a1.9 1.9 0 0 0-.139.77q0 .465.139.781.14.316.39.478.252.162.58.162.186 0 .343-.049.159-.049.282-.142a.8.8 0 0 0 .204-.232.9.9 0 0 0 .115-.31l.93.004q-.036.3-.18.578-.142.277-.385.495-.24.217-.573.345a2.1 2.1 0 0 1-.75.125q-.582 0-1.041-.264a1.87 1.87 0 0 1-.723-.762q-.263-.5-.263-1.21 0-.711.267-1.21.268-.5.727-.761.459-.264 1.033-.264m-5.093 2.983h.051l1.198-2.923h1.135v4.351h-.892v-2.832h-.037l-1.126 2.811h-.607l-1.126-2.822h-.037v2.843H1.35V8.554h1.135zm9.358-2.923q.494 0 .843.189.349.187.531.52.185.332.185.765 0 .434-.187.765a1.3 1.3 0 0 1-.542.517q-.353.184-.854.184h-.773v1.411h-.92V8.554zm-.797 2.203h.624a.9.9 0 0 0 .438-.091.6.6 0 0 0 .26-.257.8.8 0 0 0 .087-.38q0-.217-.088-.379a.6.6 0 0 0-.259-.253.95.95 0 0 0-.442-.091h-.62zm2.106-7.296v3.212l-.5.5h-12l-.5-.5V3.461l.5-.5h12zm-12 2.712h11V3.961h-11zm9.675-1.7a.523.523 0 1 1 .4.966.523.523 0 0 1-.4-.966"></path>
  </symbol>
  <symbol id="performance-acceleration-rocket-outline" viewBox="0 0 16 16">
    <path d="M10.562 4.51a.875.875 0 1 1 0 1.75.875.875 0 0 1 0-1.75"></path>
    <path fill-rule="evenodd" d="M7.012 4.359c1.434-1.25 3.623-2.51 6.604-2.51l.5.5c0 2.98-1.26 5.17-2.51 6.604q-.149.171-.296.327l.226 2.407-.142.399-1.916 1.933-.848-.436.319-1.863-.495-.744-.234-.234-1.067.8-.654-.046-2.12-2.12-.047-.654.8-1.068-.143-.143-.744-.495-1.863.319-.436-.848L3.879 4.57l.399-.143 2.406.227q.157-.147.328-.296m-1.166 4.01 1.66 1.66-.606.454-1.508-1.508zm3.068 1.653-2.971-2.97q.105-.159.266-.374c.32-.426.806-.995 1.46-1.564a9.2 9.2 0 0 1 3.149-1.82q.106.074.238.183c.227.186.491.428.748.685.256.257.498.52.684.748q.11.133.184.238a9.2 9.2 0 0 1-1.82 3.15 10.4 10.4 0 0 1-1.938 1.725m.627.783.35.527.077.361-.085.497.636-.642-.131-1.392a11 11 0 0 1-.847.65m-4.13-4.73q-.145.194-.251.349l-.527-.35-.361-.077-.497.085.642-.636 1.392.131a11 11 0 0 0-.399.499m7.69-3.212q-.031.562-.125 1.08a13 13 0 0 0-.955-.955 9 9 0 0 1 1.08-.125m-8.058 8.058c-.4-.4-.88-.534-1.355-.388-.423.13-.76.457-1.003.788-.25.34-.448.746-.572 1.13-.119.368-.193.786-.124 1.131l.393.392c.345.07.763-.005 1.13-.123.384-.124.79-.321 1.131-.572.33-.244.658-.58.788-1.004.145-.474.012-.954-.388-1.354M3.205 12.9q-.106.033-.196.055.02-.09.055-.196c.094-.293.245-.6.425-.844.188-.255.365-.386.492-.425.075-.023.18-.035.354.139s.162.28.139.354c-.039.127-.17.304-.425.491a3 3 0 0 1-.844.426" clip-rule="evenodd"></path>
  </symbol>
  <symbol id="performance-acceleration-rocket-solid" viewBox="0 0 16 16">
    <path d="M13.84 1.73a9.4 9.4 0 0 0-2.283.367l.071.058c.363.297.77.672 1.158 1.06.375.375.739.769 1.031 1.123a9.4 9.4 0 0 0 .364-2.268z"></path>
    <path fill-rule="evenodd" d="M10.557 2.599a2 2 0 0 0-.15-.092c-3.464 1.476-5.412 4.52-5.412 4.52l3.889 3.888c.01-.007 3.066-1.967 4.533-5.447l-.016-.025a6 6 0 0 0-.33-.438 15 15 0 0 0-.992-1.083c-.37-.37-.753-.722-1.084-.993a6 6 0 0 0-.438-.33m.001 1.86a.875.875 0 1 1 0 1.75.875.875 0 0 1 0-1.75" clip-rule="evenodd"></path>
    <path d="M4.996 8.442 4.2 9.505l.023.327L6.21 11.82l.327.023 1.063-.797zm4.927 3.694-.329-.494.101-.072c.161-.115.386-.284.653-.504.399-.328.897-.774 1.42-1.33l.23 2.446-.07.2-1.916 1.933-.424-.219zM4.34 6.215q-.044.06-.078.11l-.449-.299-1.96.336-.218-.424 1.933-1.916.2-.071 2.372.223c-.54.512-.975.997-1.296 1.388-.22.267-.388.492-.504.653m.199 5.156c-.325-.325-.693-.418-1.05-.309-.331.102-.611.366-.827.659-.22.297-.394.656-.503.995-.107.331-.164.68-.11.949l.196.196c.27.053.618-.003.95-.11.338-.11.696-.284.994-.503.293-.216.557-.496.659-.827.109-.357.016-.725-.31-1.05"></path>
  </symbol>
  <symbol id="queues-outline" viewBox="0 0 16 16">
    <path fill-rule="evenodd" d="M12.25 4.5h-8.5v-1h8.5zm-2.75 6v-5h1v5zm-4 0v-5h1v5zm2 0v-5h1v5zm-4.207-3-.897-.896.708-.708L5.207 8l-2.103 2.104-.708-.708.897-.896H1.5v-1zm9.5 0-.897-.896.708-.708L14.707 8l-2.104 2.104-.707-.708.897-.896H11v-1zm-.543 5h-8.5v-1h8.5z" clip-rule="evenodd"></path>
  </symbol>
  <symbol id="r2-outline" viewBox="0 0 16 16">
    <path fill-rule="evenodd" d="M12.116 2.57c-.973-.326-2.384-.546-3.991-.546s-3.018.22-3.99.545c-.492.164-.814.337-.992.478a1 1 0 0 0-.082.072c.02.069.078.158.225.268.21.158.548.313 1.025.448.947.266 2.292.409 3.814.409s2.867-.143 3.814-.41c.477-.134.816-.29 1.025-.447.147-.11.204-.2.225-.268a1 1 0 0 0-.082-.072c-.178-.141-.5-.314-.991-.478M4.02 4.818a5 5 0 0 1-.97-.369v1.757c0 .079.039.206.25.377.214.173.556.347 1.03.5.944.306 2.284.49 3.795.49 1.51 0 2.85-.184 3.794-.49.474-.153.817-.327 1.03-.5.212-.171.251-.298.251-.377V4.45a5 5 0 0 1-.97.369c-1.08.304-2.534.45-4.105.45s-3.026-.146-4.105-.45m10.23-1.77C14.25 1.917 11.508 1 8.125 1S2 1.917 2 3.049v9.902C2 14.083 4.742 15 8.125 15s6.125-.917 6.125-2.049zM13.2 7.654a5.3 5.3 0 0 1-.95.403c-1.083.35-2.543.54-4.125.54S5.083 8.408 4 8.058a5.3 5.3 0 0 1-.95-.403v1.712c0 .078.039.205.25.376.214.173.556.348 1.03.501.944.306 2.284.489 3.795.489 1.51 0 2.85-.183 3.794-.489.474-.153.817-.328 1.03-.5.212-.172.251-.299.251-.377zM4 11.215a5.3 5.3 0 0 1-.95-.403v2.058q.026.028.093.083c.178.141.5.314.992.478.972.325 2.383.545 3.99.545s3.018-.22 3.99-.545c.492-.164.814-.337.992-.478a1 1 0 0 0 .093-.083v-2.058a5.3 5.3 0 0 1-.95.403c-1.083.351-2.543.541-4.125.541s-3.042-.19-4.125-.54m.625-4.666a.52.52 0 0 0 .525-.512.52.52 0 0 0-.525-.513.52.52 0 0 0-.525.513.52.52 0 0 0 .525.512m.525 2.73a.52.52 0 0 1-.525.513.52.52 0 0 1-.525-.513c0-.282.235-.512.525-.512s.525.23.525.512m-.525 3.671a.52.52 0 0 0 .525-.512.52.52 0 0 0-.525-.512c-.29 0-.525.23-.525.512s.235.512.525.512" clip-rule="evenodd"></path>
  </symbol>
  <symbol id="reliability-dns-outline" viewBox="0 0 16 16">
    <path d="M14 10.793h-.85v-3.43H8.46v-2.18h.84l.5-.5V2l-.5-.5H6.605l-.5.5v2.683l.5.5h.855v2.18H2.85v3.43H2l-.5.5V14l.5.5h2.698l.5-.5v-2.707l-.5-.5H3.85v-2.43h3.61v2.43h-.855l-.5.5V14l.5.5H9.3l.5-.5v-2.707l-.5-.5h-.84v-2.43h3.692v2.43h-.847l-.5.5V14l.5.5H14l.5-.5v-2.707zM7.105 2.5H8.8v1.695H7.105zm-2.908 11H2.5v-1.707h1.695zm4.603 0H7.105v-1.707H8.8zm4.7 0h-1.695v-1.707H13.5z"></path>
  </symbol>
  <symbol id="reliability-load-balancer-outline" viewBox="0 0 16 16">
    <path d="M13.095 10.148 15.25 8l-2.148-2.147-.707.707.933.94h-3.41a2.65 2.65 0 0 0-.443-1.04L11.842 4l.023 1.328 1-.018-.055-3.03-3.035.058.017 1 1.33-.023L8.75 5.768A2.662 2.662 0 0 0 4.677 7.5h-.585a1.585 1.585 0 1 0 0 1h.585a2.662 2.662 0 0 0 4.073 1.733l2.367 2.454-1.33-.022-.017 1 3.035.058.055-3.036-1-.017-.018 1.33-2.367-2.46c.22-.31.372-.665.442-1.04h3.41l-.94.94zm-10.5-1.563a.585.585 0 1 1 .41-.172.6.6 0 0 1-.413.172zM5.63 8a1.67 1.67 0 1 1 3.34 0 1.67 1.67 0 0 1-3.34 0"></path>
  </symbol>
  <symbol id="vectorize-db-outline" viewBox="0 0 16 16">
    <path fill-rule="evenodd" d="M2.461 12V1.75h1v1.745h.986l.5-.592h.5l.5.592h.933l.5-.592h.5l.5.592h4.083V1.75h1V12h.5v1h.537v1h-13v-1h.463v-1zm1.987-7.503.5.5h.5l.5-.5h.932l.5.5h.5l.5-.5h4.083V6.52h-1.257l-.5-.5h-.5l-.5.5H5.947l-.5-.5h-.5l-.5.5H3.46V4.497zm0 3.024H3.46v1.977h3.793l.5-.5h.5l.5.5h.952l.5-.5h.5l.5.5h1.257V7.521h-1.257l-.5.5h-.5l-.5-.5H5.947l-.5.5h-.5zM7.254 10.5l.5.5h.5l.5-.5h.951l.5.5h.5l.5-.5h1.258V12H3.46v-1.5z" clip-rule="evenodd"></path>
  </symbol>
  <symbol id="workers-constellation-outline" viewBox="0 0 16 16">
    <path fill-rule="evenodd" d="M9.188 5.25V2.5h1v2.75zM3.061 3.625v-.75h1v.75h.75v1h-.75v.75h-1v-.75h-.75v-1zm4.946 2.528-.972-.973.707-.707.972.973zm2.652-.707.972-.973.707.707-.972.973zM5.063 6.625h2.75v1h-2.75zm6.5 0h2.75v1h-2.75zm.069 3.152-.972-.973.707-.707.972.973zM7.036 9.07l.972-.973.707.707-.972.973zm2.152 2.68V9h1v2.75zm-6.126-.437V10h1v1.313h1.313v1H4.063v1.312h-1v-1.312H1.75v-1z" clip-rule="evenodd"></path>
  </symbol>
  <symbol id="workers-for-platform-outline" viewBox="0 0 16 16">
    <path fill-rule="evenodd" d="m8.464 1.447 6.484 3.643.002.505.003.002v4.996l-.494.812-5.731 3.277v.025h-1.44v-.016l-5.766-3.298-.475-.8V5.597l.002-.001.004-.507L7.59 1.447zM2.32 5.513 7.101 8.25l.898.507 1.022-.577 4.66-2.665L7.999 2.31zm8.09 2.985L8.483 9.6v4.11l5.504-3.148V6.458zM2.013 6.466l5.504 3.18v4.064l-5.504-3.148zm4.852-2.244c0 .342.464.62 1.037.62s1.037-.278 1.037-.62v-.409c0-.342-.464-.62-1.037-.62s-1.037.278-1.037.62zm0 2.694c0 .343.464.621 1.037.621s1.037-.278 1.037-.62v-.409c0-.343-.464-.62-1.037-.62s-1.037.277-1.037.62zm2.597-1.453v-.408c0-.343.464-.621 1.037-.621s1.037.278 1.037.62v.409c0 .343-.464.62-1.037.62s-1.037-.277-1.037-.62m-5.193 0c0 .343.464.62 1.037.62.572 0 1.037-.277 1.037-.62v-.408c0-.343-.465-.621-1.037-.621-.573 0-1.037.278-1.037.62z" clip-rule="evenodd"></path>
    <path fill-rule="evenodd" d="m8.477 1.4 6.518 3.662.002.506.003.002v5.037l-.508.833-5.717 3.27v.044H7.24v-.035l-5.753-3.291L1 10.606V5.57l.003-.001.003-.508L7.576 1.4zm-1.15 13.26H8.68v-.005l5.744-3.285.481-.79V5.624l-.003-.001-.001-.506-6.45-3.623H7.6L1.1 5.117l-.004.506-.002.001v4.956l.462.779 5.77 3.3zm.672-12.405 5.776 3.259-4.73 2.706h-.001l-1.045.59-.921-.52-4.854-2.777zM2.414 5.514l4.71 2.694.875.494.999-.563 4.587-2.625L8 2.363l-5.585 3.15zm4.779-2.1c-.18.109-.281.251-.281.4v.408c0 .148.1.29.28.398.18.107.43.175.71.175s.53-.068.709-.175c.18-.108.28-.25.28-.398v-.409c0-.148-.1-.29-.28-.398a1.4 1.4 0 0 0-.71-.175 1.4 1.4 0 0 0-.708.174m-.049-.08c.197-.117.464-.188.758-.188.293 0 .561.07.757.188s.327.285.327.48v.408c0 .194-.132.362-.327.479a1.5 1.5 0 0 1-.757.188c-.294 0-.561-.07-.758-.188-.195-.117-.326-.285-.326-.48v-.408c0-.194.131-.362.326-.479M4.596 4.656c-.18.108-.28.25-.28.399v.408c0 .148.1.29.28.398s.43.175.71.175.53-.067.709-.175c.18-.107.28-.25.28-.398v-.408c0-.149-.1-.291-.28-.399a1.4 1.4 0 0 0-.71-.175c-.279 0-.53.068-.709.175m-.048-.08c.196-.118.464-.189.758-.189.293 0 .56.071.757.188.195.117.327.285.327.48v.408c0 .194-.132.362-.327.479a1.5 1.5 0 0 1-.757.188c-.294 0-.562-.07-.758-.188s-.326-.285-.326-.48v-.407c0-.195.13-.363.326-.48zm5.194 0a1.5 1.5 0 0 1 .757-.189c.293 0 .561.071.757.188.18.108.305.258.324.433h.003v.455c0 .194-.131.362-.326.479a1.5 1.5 0 0 1-.758.188 1.5 1.5 0 0 1-.757-.188c-.196-.117-.327-.285-.327-.48v-.406c0-.195.131-.363.327-.48m1.747.479c0-.149-.1-.291-.28-.399a1.4 1.4 0 0 0-.71-.175c-.28 0-.53.068-.71.175-.18.108-.28.25-.28.398v.409c0 .148.1.29.28.398s.43.175.71.175.53-.067.71-.175.28-.25.28-.398zM7.193 6.11c-.18.107-.281.25-.281.398v.408c0 .149.1.291.28.399.18.107.43.175.71.175s.53-.068.709-.175c.18-.108.28-.25.28-.399v-.408c0-.148-.1-.29-.28-.398a1.4 1.4 0 0 0-.71-.176c-.279 0-.53.068-.708.176m-.049-.081c.197-.117.464-.188.758-.188.293 0 .561.07.757.188s.327.285.327.48v.407c0 .195-.132.363-.327.48a1.5 1.5 0 0 1-.757.188c-.294 0-.561-.071-.758-.188-.195-.117-.326-.285-.326-.48v-.408c0-.194.131-.362.326-.479m6.89.349v4.211l-5.598 3.202V9.572l1.95-1.115zm-12.068.006L7.564 9.62v4.172L1.966 10.59zm8.467 2.154L8.53 9.627v4.002l5.41-3.095V6.54l-3.507 2zM2.06 6.548v3.986l5.41 3.095V9.673z" clip-rule="evenodd"></path>
  </symbol>
  <symbol id="workers-pages-outline" viewBox="0 0 16 16">
    <path d="m6.22 12.305-3.198-4.3 3.181-4.177-.614-.843-3.584 4.713L2 8.3l3.601 4.848z"></path>
    <path d="M7.337 2h-1.23l4.439 6.1L6.21 14h1.238l4.333-5.898z"></path>
    <path d="M9.717 2H8.471l4.51 6.028L8.47 14h1.25L14 8.33v-.602z"></path>
    <path d="m7.772 5.578-.336 1.716h.877l.295.538-2.227 3.365-.486-.635.329-1.7h-.878l-.294-.537 2.222-3.424z"></path>
  </symbol>
  <symbol id="wrangler-cli-outline" viewBox="0 0 16 16">
    <path fill-rule="evenodd" d="M13.5 2h-11l-.5.5v11l.5.5h11l.5-.5v-11zM13 13H3V3h10zM7.75 6.804 4.25 4.75v1.18l2.244 1.32L4.25 8.564V9.75l3.5-2.057zm3.75 3.446H7.75v1h3.75z" clip-rule="evenodd"></path>
  </symbol>
</svg>
